<?xml version="1.0" encoding="utf-8"?>
<!-- Generator: Adobe Illustrator 27.6.1, SVG Export Plug-In . SVG Version: 6.00 Build 0)  -->
<svg version="1.1" id="Layer_1" xmlns="http://www.w3.org/2000/svg" xmlns:xlink="http://www.w3.org/1999/xlink" x="0px" y="0px"
	 viewBox="0 0 100 50" style="enable-background:new 0 0 100 50;" xml:space="preserve">
<style type="text/css">
	.st0{display:none;}
	.st1{display:inline;}
</style>
<g>
	<g class="st0">
		<g class="st1">
			<g>
				<path d="M42.8-17.9c-3,1.3-7.5,3.1-9.3,6c-1.8,2.8,0.1,6.8,1.4,9.5c0.4,0.7,1.5,0.9,2.1,0.3c1.7-2,3.3-4.1,4.6-6.4
					c0.6-1.1,1.2-2.2,1.8-3.3c0.5-0.9,1.2-1.6,1.7-2.5c0.3-0.5,0.2-1.1-0.2-1.6L44.8-16c-1.1-1.3-3,0.6-1.9,1.9L43-14
					c-0.1-0.5-0.1-1.1-0.2-1.6c-0.4,0.6-1,1.2-1.4,1.9c-0.6,1-1,2.1-1.6,3.1C38.5-8.2,36.9-6,35.1-4c0.7,0.1,1.4,0.2,2.1,0.3
					c-0.6-1.2-1.1-2.5-1.5-3.8c-0.5-2.2-0.1-3.2,1.7-4.5c2.1-1.5,4.4-2.6,6.7-3.6C45.7-16.3,44.3-18.5,42.8-17.9L42.8-17.9z"/>
			</g>
		</g>
		<g class="st1">
			<g>
				<path d="M46.4-14.4c-2.1,1.2-3.8,2.8-5.2,4.7c-1,1.4,1.3,2.7,2.3,1.3c1.1-1.6,2.6-2.8,4.3-3.8C49.2-13,47.9-15.2,46.4-14.4
					L46.4-14.4z"/>
			</g>
		</g>
		<g class="st1">
			<g>
				<path d="M46.9-12.6c-1.5,0.1-3.1,0.8-3.5,2.4c-0.5,1.7,1,3.4,2.7,3.5c1.6,0.1,3.3-1.3,3.5-3c0.1-2.1-2-2.9-3.8-2.9
					c-1.7-0.1-1.7,2.6,0,2.6c0.2,0,1.1,0,1.2,0.2c0,0.2-0.6,0.6-0.8,0.5c-0.1,0-0.1-0.1-0.2-0.2s0,0,0,0.1c0-0.1,0-0.1,0.1-0.1
					c0.3-0.2,0.5-0.3,0.9-0.4C48.6-10.1,48.6-12.7,46.9-12.6L46.9-12.6z"/>
			</g>
		</g>
		<g class="st1">
			<g>
				<path d="M55.4-13.1c1.3,1.7,2.5,3.4,3.6,5.2c0.9,1.4,3.2,0.1,2.3-1.3c-1.1-1.8-2.3-3.5-3.6-5.2C56.6-15.8,54.4-14.5,55.4-13.1
					L55.4-13.1z"/>
			</g>
		</g>
		<g class="st1">
			<g>
				<path d="M58.6-13.3c-2.2,0-6.3,1.3-4.7,4.3c1.1,2,4.4,2.4,5.6,0.2c0.8-1.5-1.5-2.8-2.3-1.3c-0.2,0.4-0.8,0-1-0.2
					c0.1,0.1-0.2,0.1,0.1,0.1c0.2,0,0.5-0.2,0.6-0.3c0.6-0.2,1.1-0.3,1.7-0.3C60.3-10.7,60.3-13.3,58.6-13.3L58.6-13.3z"/>
			</g>
		</g>
		<g class="st1">
			<g>
				<path d="M59.2-14.9c1,1.1,2.3,1.8,3.6,2.6c0.7,0.4,2.5,1.1,3,1.7c2,2.4-0.3,3.1-1.6,4.1c-2,1.5-2.9,3.4-1.9,5.7
					c0.6,1.3,2.3,0.5,2.4-0.7c0.3-3.6,0.7-8.9-1.7-11.9c-1.1-1.3-2.9,0.6-1.9,1.9c1.9,2.3,1.2,7.3,1,10.1c0.8-0.2,1.6-0.4,2.5-0.7
					c-0.8-1.8,3.2-3.5,4.2-4.8c0.7-1,1.1-2.2,0.8-3.4c-0.9-3.4-6.2-4-8.4-6.4C59.9-18,58-16.1,59.2-14.9L59.2-14.9z"/>
			</g>
		</g>
		<g class="st1">
			<g>
				<path d="M43.4-15.9c3.5-0.7,5.9,0.3,9.2,0.7c2.8,0.4,5.7-0.1,8.5,0.3c1.7,0.2,1.7-2.4,0-2.6c-3.6-0.4-7-0.1-10.7-0.9
					c-2.8-0.6-5-0.6-7.8,0C41-18.2,41.7-15.6,43.4-15.9L43.4-15.9z"/>
			</g>
		</g>
		<g class="st1">
			<g>
				<path d="M61.7-6.8c-1.1,3-3.2,4.3-3.4,7.6c-0.1,1.8,0.8,4.8-1.9,5.4c-0.9,0.2-3-1-4.1-1.1c-1.7-0.2-3,0.2-4.6,0.4
					C46,6.6,45.2,5.7,45.2,3c0.1-0.5,0.2-1,0.2-1.6c-0.5-3.5-2.7-7.2-2.2-10.8c0.3-1.7-2.3-2.4-2.5-0.7c-0.3,2.1-0.3,3.9,0.4,5.9
					c0.8,2.5,1.7,3.5,1.6,6.4c0,1-0.4,1.8-0.3,2.8c0.4,5,4,3.1,7.3,2.7c3.4-0.4,8.5,3.2,10.7-0.9c0.8-1.5,0.4-3.4,0.5-5
					c0.2-3.6,2.2-5.1,3.3-8.1C64.9-7.7,62.3-8.3,61.7-6.8L61.7-6.8z"/>
			</g>
		</g>
		<g class="st1">
			<g>
				<path d="M50.1,1.5c0.5,0.1,0.6,0,0.1-0.5c0.2-0.3,0.4-0.5,0.6-0.8C50.5,0.4,50,1,49.6,0.5c-0.3-0.4,0.3-0.5,0.7-0.7
					c0.8-0.4,1.8-0.6,2.7-0.6c0.8,0,2.8,0.5,1.8,1.6c-0.4,0.5-1.5,0.7-2.1,0.7c0.3,0.1,0.6,0.3,0.9,0.4c0.1,0.4,0.3,0.4,0.7,0.1
					c1.5-0.7,0.2-3-1.3-2.3c-1.4,0.6-2.7,2.3-1.4,3.8c1.1,1.3,3.4,0.4,4.5-0.4c1.4-0.9,2-2.7,1.2-4.3c-1-1.9-3.2-2.4-5.1-2.2
					c-1.8,0.2-4.1,0.8-5.1,2.5c-0.9,1.4-0.5,3.4,1.1,4.1c1.4,0.6,3.9,0,4.5-1.5c0.7-1.8-1.2-2.8-2.7-2.9C48.4-1.2,48.4,1.5,50.1,1.5
					L50.1,1.5z"/>
			</g>
		</g>
		<g class="st1">
			<g>
				<path d="M45.3,8.2c1.3,2.5,3.5,4.5,6.5,4.6c2.6,0.1,5.2-1.5,5.4-4.3c0.1-1.7-2.5-1.7-2.6,0c-0.1,2-3.1,1.8-4.2,1.3
					c-1.3-0.6-2.1-1.7-2.7-2.9C46.8,5.4,44.6,6.7,45.3,8.2L45.3,8.2z"/>
			</g>
		</g>
		<g class="st1">
			<g>
				<path d="M61.6,32.7c1.6,4.5,1.2,7.7,0.9,12.2C62.3,47,62.6,49,63.2,51c0.1,0.5,1.2,2.3,1.1,2.7c-1.1,0.3-2.2,0.6-3.3,0.9
					c0.3-0.4,0.6-0.7,0.9-1.1c0.6-3.1,1.4-5.4,1.1-8.9c-0.4-4.3-2.8-7.4-3.9-11.5c-0.4-1.6-3-0.9-2.5,0.7c1,3.8,3.4,6.7,3.8,10.8
					c0.1,1.3,0.3,3,0.1,4.4c-0.5,4.8-1.4,2.5-2.3,5c-1.2,3.4,0.9,6.2,4.8,5.5c5.2-0.9,4.4-4.6,3.1-8.4c-1.4-3.9-0.2-7.1,0-11
					c0.1-2.7-0.9-5.6-1.8-8.1C63.5,30.4,61,31.1,61.6,32.7L61.6,32.7z"/>
			</g>
		</g>
		<g class="st1">
			<g>
				<path d="M57,39.6c-3.8,2.6-8,5.6-9.6,10.2c-1,2.9-1.3,6.6-1.6,9.7c-0.2,1.6-0.2,3.2,0.8,4.5c1.5,2.2,5.5,2.5,6.4-0.5
					c0.8-2.8-2.4-4.1-1-7.3c1.3-3,7.3-4.3,9.7-6.1c1.4-1,0-3.3-1.3-2.3c-4.1,2.9-12.7,4.5-11.4,11.3c0,0.1,0.6,1.6,0.6,1.6
					c0,1.6-1-1.3-1-1.9c-0.1-1.5,0.6-4.1,0.8-5.6c0.9-5.5,4.6-8.4,9-11.4C59.7,41,58.4,38.7,57,39.6L57,39.6z"/>
			</g>
		</g>
		<g class="st1">
			<g>
				<path d="M44.6,36.4c0.1,1.9,1.1,3.5,2.8,4.5c1.5,0.8,2.8-1.4,1.3-2.3c-0.8-0.5-1.4-1.3-1.5-2.2c0-0.7-0.6-1.3-1.3-1.3
					C45.3,35.1,44.6,35.7,44.6,36.4L44.6,36.4z"/>
			</g>
		</g>
		<g class="st1">
			<g>
				<path d="M37.6,32.2c-1.3,2.1-0.8,5.1-0.8,7.5c0,3.7,0.4,7.2,1.2,10.8c1.2,5.2,2,9,0.8,14.2c-0.3,1.2-0.7,1.8,0.2,2.8
					c2.6,3.2,6.9-0.1,7.5-2.9c0.7-3.5-0.3-7.7,0-11.4c0.2-2.1,0.4-4.2,0.4-6.2c0-1.7-1-5.4,0.1-6.8c1-1.3-1.2-2.7-2.3-1.3
					c-2.3,3-0.4,8.3-0.7,11.7c-0.2,3-0.6,5.9-0.5,8.9c0.1,2.3,0.7,3-1,5c-2.8,3.3-0.9,1.1-0.7,0c0.8-4.3,0.5-7.8-0.6-12.1
					c-0.8-3.3-1.5-6.6-1.7-10c-0.1-2.1-0.8-7,0.4-8.8C40.7,32.2,38.5,30.8,37.6,32.2L37.6,32.2z"/>
			</g>
		</g>
		<g class="st1">
			<g>
				<path d="M35.7,35.5c-2.1,1.6-3.1,4.1-2.8,6.8c0.1,1.2,0.5,2.3,1,3.3c0.3,0.5,0.6,1,1,1.4c0.3,0.4,1,1.6,1.2,1
					c-0.5,1.6,2,2.3,2.5,0.7c0.5-1.6-1.2-2.5-2-3.7c-1.8-2.5-1.5-5.7,0.9-7.6C38.9,36.3,37,34.5,35.7,35.5L35.7,35.5z"/>
			</g>
		</g>
		<g class="st1">
			<g>
				<path d="M38.2,55.1c-1.3,1.2-2.5,2.6-2.4,4.4c0.1,1.7,1.5,3.1,3.2,3s1.7-2.7,0-2.6c-0.8,0.1-0.6-0.8-0.4-1.3
					c0.3-0.7,0.9-1.2,1.4-1.6C41.3,55.8,39.5,54,38.2,55.1L38.2,55.1z"/>
			</g>
		</g>
		<g class="st1">
			<g>
				<path d="M35.1,35.6c-1.2,0.1-2.4,0-3.5-0.7c-0.9-0.6-1.4-1.8-2.5-1.9c-0.4,0-0.9,0.3-1.1,0.7c-0.5,1-0.4,2.3-0.4,3.4
					c0,1.1,0,2.2,0.6,3.2c1.2,2,3.6,2.2,5.7,2.1c1.7-0.1,1.7-2.7,0-2.6c-1,0-3,0.3-3.6-0.9c-0.2-0.5-0.1-1.2-0.1-1.7
					c0-0.4-0.1-1.7,0-2c-0.4,0.2-0.8,0.4-1.1,0.7h0.1c-0.4-0.2-0.8-0.4-1.1-0.7c1.6,2.3,4.2,3.6,7,3.3C36.7,38,36.7,35.4,35.1,35.6
					L35.1,35.6z"/>
			</g>
		</g>
		<g class="st1">
			<g>
				<path d="M40.4-2.6c-1.5,3.1-1.6,5.6-1.4,9c0.3,4.6-2.3,6.5-2.7,10.7c-0.3,3.3,0.7,7.3,1.4,10.5c0.6,2.9,1.4,5.3,3.6,7.3
					c1.2,1.2,3.1-0.7,1.9-1.9c-4.1-3.9-5.2-14.7-2.9-19.3c0.7-1.4,1.7-2.9,1.8-4.5c0.4-3.9-1.3-6.5,0.7-10.6
					C43.4-2.8,41.2-4.1,40.4-2.6L40.4-2.6z"/>
			</g>
		</g>
		<g class="st1">
			<g>
				<path d="M57.9,9.2c1.3,3.6-0.5,7.1,1.7,10.4c1.6,2.5,3.6,4.1,3.5,7.3c0,2.5-1.6,4.5-1.7,6.9c-0.1,1.7,2.5,1.7,2.6,0
					c0.3-4.4,2.8-7.1,0.7-11.7c-1.1-2.3-3.2-3.8-3.6-6.5c-0.4-2.6,0.3-4.4-0.7-7.1C59.9,6.9,57.3,7.6,57.9,9.2L57.9,9.2z"/>
			</g>
		</g>
		<g class="st1">
			<g>
				<path d="M45.9,26.9c1.5,1.7,3.4,3,5.5,3.8c1.6,0.6,2.3-1.9,0.7-2.5c-1.7-0.7-3.2-1.7-4.4-3.1C46.6,23.7,44.8,25.6,45.9,26.9
					L45.9,26.9z"/>
			</g>
		</g>
	</g>
	<path d="M64.1,30.8C64,30.8,64,30.9,64,31c0,0.1,0,0.2,0,0.2c0.2,0.4,0.4,0.8,0.6,1.2c0.2,0.3,0.3,0.6,0.5,0.9v0.1
		c0,0.1,0.1,0.2,0.2,0.3s0.2,0.1,0.3,0.1c0.1,0,0.2,0.1,0.3,0.1c0.4,0.2,0.8,0.5,1.2,0.8c0.1,0.1,0.2,0.1,0.3,0.2
		c0.1,0.1,0.1,0.2,0.2,0.3c0.1,0.3,0.2,0.6,0.4,1c0.1,0.2,0.1,0.4,0.2,0.5c0.1,0.2,0.1,0.3,0.1,0.5c0,0.1,0,0.1,0,0.2
		c0,0.4,0.1,0.8,0.1,1.2c0,0.2,0,0.3,0.1,0.5c0,0.2,0,0.5,0,0.7c0,0.1-0.1,0.3-0.1,0.4s-0.1,0.2-0.1,0.4l0,0c0,0,0,0-0.1,0.1
		c-0.1,0-0.1,0-0.2,0c-0.3,0-0.6,0.1-0.9,0.1c-0.4,0-0.7,0.1-1,0.1s-0.6,0.1-1,0.1c-0.1,0-0.2,0-0.2,0c-0.1,0-0.2,0-0.2,0
		c-0.2,0-0.3,0-0.5,0c-0.1,0-0.1,0-0.2,0c-0.1,0-0.1-0.1-0.2-0.1c-0.1-0.1-0.2-0.2-0.3-0.3c-0.1-0.1-0.2-0.3-0.3-0.5
		s-0.1-0.5-0.2-0.7v-0.1c0-0.2,0.1-0.3,0.1-0.5c0-0.2,0.1-0.4,0.1-0.7c0-0.1,0-0.3,0-0.4c0-0.2,0-0.4,0.1-0.6c0-0.1,0-0.1,0-0.2
		c0-0.1-0.1-0.3-0.1-0.5c-0.1-0.2-0.3-0.3-0.5-0.4c-0.1,0-0.1,0-0.2,0c-0.1,0-0.3,0-0.4,0.1c-0.1,0.1-0.1,0.1-0.2,0.2
		c-0.1,0.1-0.1,0.2-0.2,0.2c0,0.1-0.1,0.2-0.1,0.3s0,0.1-0.1,0.2c0,0.2-0.1,0.3-0.1,0.5c-0.1,0.5-0.2,1.1-0.1,1.6
		c0,0.2,0,0.4,0.1,0.6c-0.1,0.1-0.1,0.2-0.2,0.3c-0.1,0.1-0.1,0.1-0.2,0.2c-0.1,0.1-0.2,0.1-0.4,0.2s-0.4,0.1-0.6,0.2
		c-0.1,0-0.3,0.1-0.4,0.1c-0.2,0-0.4,0.1-0.6,0.1c-0.1,0-0.2,0-0.2,0l0,0c0-0.3,0-0.6,0-0.9c0-0.2,0.1-0.4,0.1-0.6
		c0-0.1,0-0.2,0.1-0.3c0-0.1,0.1-0.2,0.1-0.3c0-0.1,0-0.3,0-0.4c-0.1-0.2-0.2-0.4-0.4-0.5c-0.1-0.1-0.3-0.1-0.4-0.1
		c-0.1,0-0.1,0-0.2,0c-0.1,0-0.2,0.1-0.3,0.2c-0.2,0.1-0.3,0.4-0.3,0.6c0,0.1,0,0.1,0,0.2s0,0.1,0,0.2c-0.1,0.2-0.2,0.3-0.3,0.5
		s-0.3,0.3-0.4,0.4c-0.1,0.1-0.1,0.1-0.2,0.1L56.5,40c-0.1,0-0.3,0.1-0.4,0.1c-0.1,0-0.2,0-0.3,0c-0.3,0-0.5-0.1-0.8-0.2
		s-0.6-0.1-0.9-0.2H54c0,0,0,0-0.1-0.1c0-0.1-0.1-0.1-0.1-0.2c-0.1-0.2-0.1-0.4-0.1-0.5s0-0.2,0-0.2c0-0.1,0-0.3,0-0.4
		c0-0.1,0-0.3,0-0.4c0-0.2,0-0.3,0-0.5c0-0.1-0.1-0.2-0.2-0.3c-0.1-0.1-0.1-0.1-0.2-0.2c-0.2-0.1-0.4-0.1-0.6-0.1
		c-0.2,0-0.4,0.1-0.6,0.1c-0.1,0-0.3,0-0.4,0.1c-0.2,0-0.4,0.1-0.6,0.1c0-0.1,0-0.2,0-0.2c0-0.2-0.2-0.3-0.3-0.4
		c-0.2-0.1-0.3-0.1-0.5-0.1c-0.1,0-0.1,0-0.2,0.1c-0.1,0.1-0.2,0.1-0.2,0.2c-0.1,0.1-0.2,0.3-0.2,0.5c0,0.1,0,0.2,0,0.3s0,0.1,0,0.2
		c0,0.1,0.1,0.2,0.1,0.2c0,0.1,0.1,0.1,0.2,0.2c0.1,0.1,0.2,0.2,0.4,0.2c0.2,0.1,0.4,0.1,0.6,0.1c0.1,0,0.2,0,0.3,0
		c0.2,0,0.4,0,0.7-0.1c0,0,0,0,0.1,0c0,0.1,0,0.2,0,0.4c0,0.2,0.1,0.4,0.1,0.7c0,0.1,0.1,0.3,0.1,0.4c0.1,0.2,0.2,0.4,0.3,0.6
		c0.1,0.1,0.2,0.2,0.2,0.3c0.1,0.1,0.2,0.2,0.3,0.3l0.1,0.1c0.1,0.1,0.3,0.1,0.4,0.2c0.2,0.1,0.3,0.1,0.5,0.1s0.3,0.1,0.5,0.1
		s0.3,0.1,0.5,0.1s0.3,0,0.5,0.1c0.3,0,0.5,0,0.8-0.1c0.1,0,0.3-0.1,0.4-0.1c0.2-0.1,0.4-0.1,0.5-0.2c0,0,0.1,0,0.1-0.1
		c0,0.1,0,0.1,0.1,0.2c0,0.1,0.1,0.2,0.1,0.3c0.1,0.1,0.2,0.3,0.3,0.3c0.3,0.2,0.8,0.2,1.1,0.1c0.2,0,0.3-0.1,0.5-0.1
		c0.3-0.1,0.6-0.2,0.9-0.3c0.1,0,0.2,0,0.2-0.1c0.2-0.1,0.4-0.1,0.7-0.3c0.2-0.1,0.4-0.2,0.6-0.4l0,0c0.1,0.1,0.2,0.3,0.3,0.4
		c0.2,0.2,0.4,0.4,0.6,0.5c0.1,0.1,0.3,0.1,0.4,0.2c0.1,0.1,0.3,0.1,0.4,0.1c0.1,0,0.2,0,0.4,0c0.3,0,0.6,0,1,0
		c0.7,0,1.4-0.1,2.1-0.2c0.3,0,0.6-0.1,1-0.1c0.1,0,0.2,0,0.3,0c0.1,0,0.2-0.1,0.3-0.1c0.1-0.1,0.2-0.1,0.3-0.2
		c0.1-0.1,0.1-0.2,0.2-0.3c0.1-0.1,0.1-0.2,0.1-0.3c0-0.1,0.1-0.1,0.1-0.2c0.1-0.3,0.2-0.7,0.2-1.1c0-0.2,0-0.3,0-0.5
		s-0.1-0.4-0.1-0.6c0-0.3-0.1-0.5-0.1-0.8c0-0.1,0-0.3,0-0.4c0-0.2,0-0.3-0.1-0.5c0-0.2-0.1-0.4-0.1-0.6c0-0.1-0.1-0.2-0.1-0.3
		c-0.1-0.2-0.2-0.4-0.2-0.5c-0.1-0.2-0.2-0.5-0.3-0.7c-0.1-0.2-0.2-0.5-0.4-0.7c-0.1-0.1-0.2-0.2-0.3-0.2c-0.1,0-0.1-0.1-0.2-0.1
		c-0.2-0.1-0.5-0.3-0.7-0.4c-0.1-0.1-0.3-0.1-0.4-0.2c-0.2-0.1-0.4-0.2-0.6-0.2c-0.1,0-0.2,0-0.3,0h-0.1c-0.1-0.1-0.1-0.3-0.2-0.4
		c-0.1-0.2-0.2-0.3-0.2-0.5c-0.2-0.4-0.4-0.9-0.6-1.3c0-0.1-0.1-0.1-0.2-0.1h-0.1C64.2,30.7,64.2,30.8,64.1,30.8L64.1,30.8
		L64.1,30.8z M65.7,33.1L65.7,33.1L65.7,33.1L65.7,33.1L65.7,33.1z M52.3,37.6c0,0.1,0,0.1,0,0.2l0,0C52.3,37.7,52.3,37.7,52.3,37.6
		L52.3,37.6L52.3,37.6z M52.3,37.8L52.3,37.8L52.3,37.8L52.3,37.8L52.3,37.8z M52.7,38.3L52.7,38.3L52.7,38.3L52.7,38.3L52.7,38.3
		L52.7,38.3z M68.4,38.7C68.4,38.7,68.4,38.6,68.4,38.7C68.4,38.6,68.4,38.6,68.4,38.7C68.4,38.6,68.4,38.7,68.4,38.7L68.4,38.7
		L68.4,38.7z M68.4,38.6L68.4,38.6L68.4,38.6L68.4,38.6L68.4,38.6z M69.5,37.1L69.5,37.1L69.5,37.1L69.5,37.1L69.5,37.1L69.5,37.1z
		 M69.5,37.1L69.5,37.1C69.4,37,69.5,37,69.5,37.1L69.5,37.1L69.5,37.1z"/>
	<path d="M54.9,28.9c-0.2,0.1-0.4,0.2-0.6,0.3c-0.2,0.2-0.4,0.3-0.6,0.5c-0.1,0.1-0.3,0.3-0.4,0.4c-0.3,0.2-0.5,0.5-0.8,0.7
		c-0.2,0.2-0.5,0.5-0.7,0.8c-0.1,0.1-0.2,0.3-0.3,0.4c-0.1,0.1-0.2,0.3-0.3,0.4c-0.1,0.1-0.2,0.3-0.3,0.4c-0.1,0.1-0.2,0.3-0.3,0.4
		c-0.2,0.3-0.4,0.6-0.6,0.9c-0.1,0.1-0.2,0.3-0.2,0.4c-0.1,0.1-0.1,0.3-0.2,0.4c-0.1,0.3-0.3,0.6-0.4,0.9C49.1,36,49,36.2,49,36.3
		c-0.1,0.2-0.2,0.4-0.3,0.6c-0.2,0.2-0.3,0.4-0.5,0.5c-0.3,0.2-0.5,0.4-0.8,0.5C47.2,38,47,38,46.7,38.1c-0.4,0-0.8,0.1-1.2,0.1
		c-0.2,0-0.4,0-0.6,0c-0.1,0-0.2,0-0.3,0s-0.1,0-0.2,0c-0.1,0-0.1,0-0.2,0h-0.1c-0.1-0.1-0.3-0.1-0.4-0.1l0,0
		c-0.3,0-0.6,0.2-0.8,0.4c-0.1,0.1-0.1,0.3-0.1,0.5c0,0.2,0,0.3,0.1,0.5c0.1,0.1,0.2,0.3,0.3,0.3c0.2,0.1,0.3,0.1,0.5,0.1h0.1
		c0.1,0,0.3,0,0.4-0.1c0.2,0,0.3-0.1,0.5-0.1s0.3-0.1,0.5-0.1c0.2-0.1,0.3-0.1,0.5-0.1c0.3-0.1,0.6-0.1,1-0.2s0.8-0.1,1.1-0.3
		c0.2-0.1,0.3-0.2,0.4-0.3c0.2-0.1,0.4-0.3,0.5-0.5c0.1-0.1,0.2-0.2,0.3-0.3c0.2-0.2,0.4-0.5,0.5-0.8c0.2-0.4,0.4-0.8,0.5-1.2
		c0.1-0.3,0.3-0.6,0.4-0.9c0.1-0.2,0.1-0.3,0.2-0.4c0.1-0.1,0.2-0.3,0.2-0.4c0.2-0.3,0.3-0.5,0.5-0.8c0.1-0.1,0.2-0.3,0.3-0.4
		c0.1-0.1,0.2-0.3,0.3-0.4c0.2-0.2,0.3-0.4,0.5-0.6c0.2-0.2,0.4-0.4,0.6-0.7c0.2-0.2,0.4-0.4,0.6-0.6c0.3-0.3,0.7-0.7,1.1-1
		c0.1-0.1,0.3-0.2,0.4-0.3l0,0c0.1,0,0.1-0.1,0.2-0.2c0.1-0.1,0.1-0.2,0-0.3c0-0.1-0.1-0.2-0.2-0.3c-0.1,0-0.2-0.1-0.2-0.1
		C55,28.9,54.9,28.9,54.9,28.9L54.9,28.9L54.9,28.9z M52.1,32.8L52.1,32.8L52.1,32.8L52.1,32.8L52.1,32.8L52.1,32.8z"/>
	<path d="M38.8,32.7c-0.1,0-0.1,0.1-0.2,0.2c-0.1,0.1-0.2,0.2-0.3,0.3s-0.2,0.2-0.4,0.3c-0.1,0.1-0.3,0.2-0.3,0.4
		c0,0.1-0.1,0.2-0.1,0.3v0.1c0,0.2,0,0.3-0.1,0.5c0,0.1,0,0.3-0.1,0.4c-0.1,0.3-0.2,0.7-0.3,1c-0.2,0.4-0.4,0.7-0.6,1.1
		c-0.3,0.4-0.6,0.7-0.9,1c-0.2,0.2-0.2,0.5,0,0.7s0.5,0.2,0.7,0c0.5-0.5,0.9-0.9,1.3-1.5c0.4-0.6,0.7-1.2,0.8-1.8
		c0.1-0.2,0.1-0.5,0.1-0.7s0.1-0.4,0.1-0.6l0,0c0.1-0.1,0.3-0.2,0.5-0.3h0.1c0.1,0,0.1,0,0.2,0.1c0.1,0,0.1,0.1,0.2,0.1
		c0.1,0,0.2,0.1,0.4,0.1c0.2,0.1,0.5,0.1,0.7,0.2c0.3,0.1,0.5,0.1,0.8,0.2c0.3,0.1,0.6,0.2,0.9,0.1c0.1,0,0.3,0,0.4-0.1
		c0.2-0.1,0.3-0.3,0.3-0.4c0.1-0.2,0-0.4-0.1-0.6l-0.1-0.1c-0.1-0.1-0.2-0.2-0.3-0.2c-0.2-0.1-0.5-0.2-0.8-0.2
		c-0.3-0.1-0.6-0.1-0.8-0.2c-0.3-0.1-0.5-0.1-0.8-0.2c-0.1,0-0.3-0.1-0.4-0.1h-0.1c-0.1,0-0.2-0.1-0.4-0.1c0,0,0,0-0.1,0
		C39.1,32.6,38.9,32.7,38.8,32.7L38.8,32.7L38.8,32.7z"/>
	<path d="M35.8,38.2c-0.1,0.3,0.1,0.7,0.4,0.8c0.5,0.1,0.9,0.2,1.4,0.3c0.4,0.1,0.8,0.1,1.2,0.2c0.2,0,0.4,0,0.5,0
		c0.2,0,0.4,0,0.6,0c0.1,0,0.2,0,0.3,0s0.1,0,0.2,0c0.2,0,0.3,0,0.5,0c0.3,0,0.6,0,0.9,0h0.1c0.1,0,0.2,0,0.2,0.1c0.1,0,0.2,0,0.3,0
		c0.2,0,0.3-0.1,0.5-0.1c0.1-0.1,0.2-0.1,0.3-0.3c0.1-0.1,0.1-0.2,0.1-0.4c0-0.2-0.1-0.5-0.3-0.6c-0.1-0.1-0.2-0.1-0.4-0.1
		c-0.1,0-0.3,0-0.4-0.1c-0.2,0-0.3,0-0.5,0c-0.3,0-0.7,0-1,0s-0.7,0-1,0c-0.2,0-0.3,0-0.5,0s-0.4,0-0.6,0c-0.2,0-0.4,0-0.6-0.1
		c-0.5-0.1-1-0.2-1.5-0.3c-0.1,0-0.1,0-0.2,0C36.1,37.7,35.9,37.9,35.8,38.2L35.8,38.2L35.8,38.2z"/>
	<path d="M39.2,28.6c-0.1,0-0.3,0.1-0.3,0.2c0,0,0,0-0.1,0.1c-0.2,0.1-0.3,0.2-0.5,0.3c-0.3,0.1-0.5,0.3-0.8,0.4
		c-0.1,0-0.2,0.1-0.3,0.1c-0.2,0-0.3,0-0.5,0c-0.1,0-0.1,0-0.2,0c-0.1,0-0.3,0-0.4,0l0,0c-0.1,0-0.2,0-0.3,0.1
		c-0.2,0.1-0.3,0.2-0.3,0.4c-0.1,0.4,0.1,0.7,0.5,0.8c0.1,0,0.2,0.1,0.4,0.1c0.1,0,0.2,0.1,0.4,0.1c0.1,0,0.2,0.1,0.3,0.1
		s0.2,0.1,0.3,0.1h0.1c0,0,0,0,0,0.1c0.1,0.2,0.2,0.4,0.2,0.6c0.2,0.5,0.4,1,0.6,1.4c0,0.1,0,0.1,0.1,0.2c0.1,0.1,0.2,0.2,0.3,0.3
		c0.2,0.1,0.4,0.1,0.6,0.1c0.2-0.1,0.3-0.2,0.4-0.3c0-0.1,0-0.1,0.1-0.2c0-0.1,0-0.3,0-0.4c-0.1-0.3-0.2-0.5-0.3-0.8
		c-0.1-0.2-0.1-0.4-0.2-0.6c-0.1-0.2-0.1-0.4-0.2-0.6c0-0.1-0.1-0.2-0.1-0.3s0-0.1,0-0.2c0,0,0,0,0-0.1v-0.1
		c0.1-0.1,0.3-0.1,0.4-0.2c0.1-0.1,0.2-0.1,0.3-0.2c0,0,0.1,0,0.1-0.1c0.1,0,0.2-0.1,0.2-0.1c0.1,0,0.1-0.1,0.2-0.2
		c0.1-0.1,0.1-0.2,0.1-0.3s0-0.2-0.1-0.3s-0.1-0.2-0.2-0.2c0,0-0.1-0.1-0.2-0.1c-0.1,0-0.1,0-0.2,0S39.3,28.6,39.2,28.6L39.2,28.6
		L39.2,28.6z"/>
	<path d="M44.1,23.8c-0.1,0-0.2,0-0.3,0c-0.2,0-0.3,0.1-0.5,0.1c-0.3,0.1-0.6,0.2-1,0.3c-0.5,0.2-0.9,0.4-1.3,0.7
		c-0.2,0.2-0.3,0.3-0.5,0.5c-0.1,0.1-0.1,0.2-0.2,0.3c0,0.1-0.1,0.1-0.1,0.2c0,0.1,0,0.2,0,0.3l0,0c0,0.1,0,0.2,0,0.3
		c0,0,0,0.1,0.1,0.1c0,0.1,0,0.2,0,0.2c0,0.1,0,0.2,0,0.2c0,0.1,0,0.2,0.1,0.3v0.1c0.1,0.2,0.3,0.3,0.5,0.3c0.2-0.1,0.3-0.3,0.3-0.5
		c0-0.1-0.1-0.3-0.1-0.4v-0.1c0.1,0,0.1,0,0.2,0c0.1,0,0.2,0,0.3-0.1c0.1,0,0.3-0.1,0.4-0.1c0.3-0.1,0.6-0.2,0.9-0.3
		c0.6-0.2,1.1-0.6,1.6-1c0.1-0.1,0.2-0.2,0.3-0.3c0-0.1,0.1-0.1,0.1-0.2c0-0.1,0.1-0.2,0.1-0.3s0-0.2,0-0.2v-0.1c0,0,0-0.1-0.1-0.1
		s-0.1-0.1-0.2-0.1h-0.1l-0.1-0.1c-0.1-0.1-0.1-0.1-0.2-0.1C44.2,23.8,44.2,23.8,44.1,23.8L44.1,23.8L44.1,23.8L44.1,23.8z
		 M43.4,24.8c0.1,0,0.3-0.1,0.5-0.1c0.1,0,0.2,0,0.2,0h0.1l0,0c-0.1,0.1-0.2,0.2-0.3,0.3c-0.3,0.2-0.6,0.4-0.9,0.5
		c-0.4,0.2-0.8,0.3-1.2,0.3c-0.2,0-0.3,0-0.5,0c0.1-0.1,0.2-0.2,0.2-0.2c0.2-0.2,0.5-0.3,0.7-0.4C42.7,25.1,43.1,24.9,43.4,24.8
		L43.4,24.8L43.4,24.8z"/>
	<path d="M41.8,24.8c-0.2,0.1-0.3,0.4-0.2,0.7c0.2,0.3,0.4,0.6,0.5,1c0.1,0.2,0.3,0.3,0.5,0.2c0.1,0,0.2-0.1,0.3-0.2
		c0.1-0.1,0.1-0.3,0-0.4c-0.2-0.4-0.3-0.8-0.5-1.1c-0.1-0.2-0.3-0.2-0.4-0.2C42,24.8,41.9,24.8,41.8,24.8L41.8,24.8L41.8,24.8z"/>
	<path d="M30.9,28.6c-0.2,0-0.4,0-0.5,0.1c-0.3,0.1-0.6,0.2-1,0.3s-0.7,0.3-1.1,0.4c-0.3,0.1-0.6,0.3-0.9,0.4
		c-0.2,0.1-0.3,0.1-0.5,0.2c-0.2,0.1-0.4,0.2-0.6,0.2c-0.1,0-0.3,0.1-0.4,0.1c-0.2,0-0.3,0.1-0.5,0.1c-0.2,0.1-0.5,0.1-0.7,0.1
		c-0.3,0-0.5,0.1-0.8,0.1c-0.1,0-0.3,0-0.4,0.1c-0.1,0-0.1,0-0.2,0c-0.3,0.1-0.6,0.3-0.6,0.6c0,0.2,0,0.4,0.1,0.5l0.1,0.1
		C23,32,23,32,23.1,32c0.1,0.1,0.2,0.1,0.3,0.1h0.1c0.1,0,0.2,0,0.3,0c0.1,0,0.2,0,0.3-0.1c0.1,0,0.3-0.1,0.4-0.1
		c0.3-0.1,0.7-0.1,1-0.2c0.3-0.1,0.6-0.1,0.9-0.2c0.2-0.1,0.3-0.1,0.5-0.2H27c0.1,0,0.1,0,0.2,0l0,0c0.2,0.1,0.5,0.2,0.8,0.3
		s0.6,0.1,1,0.1c0.2,0,0.3,0,0.5,0s0.4,0,0.6,0c0.3,0,0.7-0.1,1-0.1c0.3-0.1,0.6-0.2,0.9-0.4c0.1-0.1,0.3-0.2,0.4-0.2
		c0.1,0,0.1-0.1,0.2-0.1c0.1-0.1,0.1-0.1,0.2-0.2c0.1-0.1,0.1-0.2,0.1-0.3c0,0,0-0.1,0.1-0.1c0.1-0.2,0.1-0.4,0.1-0.6
		c0-0.1,0-0.2,0-0.4c0-0.1-0.1-0.2-0.1-0.3s-0.1-0.1-0.1-0.2c-0.1-0.1-0.1-0.1-0.2-0.1c-0.4,0.1-0.5,0-0.7,0c-0.1,0-0.2-0.1-0.3-0.1
		c-0.1,0-0.3,0-0.4-0.1c0,0,0,0-0.1,0C31.1,28.5,31,28.5,30.9,28.6L30.9,28.6L30.9,28.6z M31.7,29.8C31.7,29.8,31.8,29.8,31.7,29.8
		C31.8,29.8,31.8,29.8,31.7,29.8C31.8,29.8,31.7,29.8,31.7,29.8L31.7,29.8L31.7,29.8z M31.5,29.9c0.1,0,0.2,0,0.2,0.1l0,0
		c0,0.1,0,0.2-0.1,0.2l0,0c-0.2,0.2-0.4,0.3-0.7,0.4c-0.1,0.1-0.2,0.1-0.4,0.1c-0.4,0-0.8,0-1.1,0c-0.2,0-0.4,0-0.5,0
		c0.2-0.1,0.5-0.2,0.7-0.3c0.5-0.2,1-0.4,1.5-0.5C31.3,29.9,31.4,29.9,31.5,29.9L31.5,29.9L31.5,29.9z"/>
	<path d="M29.7,29.3c-0.2,0.1-0.4,0.2-0.5,0.4s-0.1,0.4-0.1,0.6c0.1,0.5,0.2,0.9,0.3,1.4c0.1,0.3,0.4,0.5,0.7,0.5
		c0.2,0,0.4-0.1,0.5-0.2l0.1-0.1c0.1-0.1,0.1-0.2,0.1-0.4c-0.1-0.5-0.2-1.1-0.3-1.6c0-0.2-0.2-0.4-0.4-0.5
		C30,29.3,29.8,29.3,29.7,29.3C29.8,29.2,29.7,29.3,29.7,29.3L29.7,29.3L29.7,29.3z"/>
	<path d="M29.3,24.2c-0.1,0-0.2,0.1-0.3,0.2c-0.1,0.1-0.2,0.2-0.2,0.3c-0.1,0.2,0,0.5,0.1,0.7c0.1,0.1,0.2,0.3,0.4,0.4
		c0.1,0.1,0.3,0.1,0.4,0.2c0.2,0.1,0.3,0.1,0.5,0.2c0.4,0.1,0.8,0.2,1.1,0.4c0.2,0.1,0.3,0.2,0.5,0.3c0.1,0.1,0.2,0.2,0.3,0.3
		s0.2,0.3,0.3,0.4c0.1,0.2,0.3,0.4,0.4,0.7c0.2,0.4,0.3,0.9,0.4,1.3c0.1,0.5,0.3,1,0.4,1.6c0,0.2,0.1,0.3,0.3,0.4
		c0.1,0.1,0.3,0.1,0.5,0.1c0.3-0.1,0.5-0.4,0.4-0.8c-0.1-0.4-0.2-0.7-0.3-1.1c-0.1-0.4-0.2-0.7-0.3-1.1c-0.1-0.5-0.3-1-0.6-1.5
		c-0.1-0.1-0.2-0.3-0.2-0.4c-0.1-0.1-0.1-0.2-0.2-0.3c-0.2-0.3-0.4-0.5-0.7-0.7c-0.4-0.3-0.9-0.5-1.4-0.6c-0.2-0.1-0.4-0.1-0.6-0.2
		c-0.1,0-0.1-0.1-0.2-0.1c-0.1-0.1-0.2-0.3-0.4-0.3c-0.1,0-0.2,0-0.2,0C29.4,24.2,29.4,24.2,29.3,24.2L29.3,24.2L29.3,24.2z"/>
	<path d="M37,19.1c-0.1,0-0.2,0.1-0.3,0.1c-0.2,0.1-0.3,0.2-0.4,0.4c-0.1,0.1-0.1,0.3-0.2,0.4C36,20.2,36,20.3,36,20.5
		c-0.1,0.3-0.2,0.6-0.3,0.9c0,0.2-0.1,0.4-0.1,0.6v0.1c0,0.1,0,0.2-0.1,0.4c0,0.1,0,0.1,0,0.2c0,0,0,0,0-0.1
		c-0.2-0.3-0.4-0.6-0.6-0.9c-0.1-0.1-0.2-0.2-0.3-0.3s-0.2-0.1-0.3-0.2c-0.2-0.1-0.5,0-0.7,0.2s-0.2,0.4-0.2,0.6c0,0.1,0,0.1,0,0.2
		v0.1c0,0.1,0,0.2,0,0.3c0,0.3,0,0.7,0,1c0,0.2,0,0.5,0,0.7c-0.1-0.1-0.2-0.2-0.3-0.3s-0.3-0.2-0.5-0.4s-0.4-0.3-0.6-0.5
		c-0.1-0.1-0.2-0.1-0.3,0c-0.1,0-0.2,0.1-0.2,0.2c-0.1,0.1-0.1,0.2,0,0.3c0,0.1,0.1,0.2,0.2,0.2c0.3,0.2,0.6,0.5,0.9,0.7
		c0.2,0.1,0.3,0.3,0.5,0.4c0.1,0.1,0.2,0.1,0.3,0.2l0.1,0.1c0,0,0,0,0,0.1s0,0.1,0.1,0.1c0,0,0,0.1,0.1,0.1l0,0l0,0l0.1,0.1
		c0.2,0.1,0.4,0.1,0.5,0s0.2-0.2,0.3-0.3v-0.1c0-0.1,0-0.2,0-0.2c0-0.2,0-0.4,0.1-0.5c0-0.3,0-0.5,0-0.8c0-0.1,0-0.2,0-0.4
		c0.1,0.2,0.2,0.3,0.3,0.5c0.2,0.2,0.3,0.4,0.5,0.6c0,0.1,0.1,0.1,0.1,0.2c0.1,0.1,0.4,0.2,0.6,0.1c0.1,0,0.1,0,0.2-0.1
		c0.1,0,0.2-0.2,0.2-0.2c0-0.1,0.1-0.1,0.1-0.2v-0.1c0.1-0.2,0.1-0.4,0.1-0.6c0-0.1,0.1-0.3,0.1-0.4c0-0.1,0.1-0.3,0.1-0.4
		c0-0.1,0.1-0.3,0.1-0.4c0-0.1,0.1-0.3,0.1-0.4c0-0.1,0.1-0.2,0.1-0.3c0.1-0.1,0.1-0.3,0.2-0.4c0-0.1,0.1-0.2,0.1-0.3
		c0.1-0.1,0.1-0.2,0.2-0.4c0.1,0,0.1-0.1,0.2-0.1c0.1-0.1,0.1-0.2,0.2-0.3c0-0.1,0-0.1,0-0.2c0-0.1,0-0.2-0.1-0.3s-0.1-0.1-0.2-0.2
		c-0.1-0.1-0.3-0.2-0.3-0.2l0,0c-0.1,0-0.1,0-0.2,0S37,19.1,37,19.1L37,19.1L37,19.1z"/>
	<path d="M39.3,20c-0.1,0.3-0.2,0.6-0.2,0.9c-0.1,0.3-0.1,0.6-0.2,0.9c0,0.1,0,0.1,0,0.2l-0.1,0.1c-0.1,0.1-0.2,0.3-0.2,0.5
		s0,0.4,0,0.7c0,0.1,0,0.2,0,0.3s0,0.1,0,0.2v0.1c0,0.1,0,0.1,0,0.2c0,0.1,0,0.1,0.1,0.2c0.2,0.3,0.5,0.4,0.7,0.3
		c0.2,0,0.3-0.2,0.4-0.3c0-0.1,0-0.1,0.1-0.2c0-0.1,0-0.1,0-0.2c0-0.2,0-0.4,0-0.7c0-0.2,0-0.4,0-0.7v-0.1c0-0.2,0-0.4,0.1-0.7
		c0-0.2,0.1-0.4,0.1-0.6c0.1-0.3,0.1-0.5,0.2-0.8c0.1-0.3-0.1-0.6-0.4-0.7h-0.1C39.6,19.6,39.3,19.7,39.3,20L39.3,20L39.3,20z"/>
	<path d="M47.2,7.2c-0.1,0-0.2,0.1-0.3,0.1s-0.1,0.1-0.2,0.1c-0.1,0.1-0.1,0.1-0.2,0.2c-0.1,0.1-0.2,0.3-0.2,0.4
		c-0.2,0.3-0.4,0.5-0.5,0.8l-0.1,0.1c-0.4,0.5-0.8,1.1-1.2,1.6c-0.2,0.3-0.4,0.6-0.6,0.8c-0.1,0.2-0.2,0.3-0.4,0.5
		c-0.1,0.1-0.2,0.3-0.3,0.4c-0.1,0.1-0.2,0.3-0.3,0.4c-0.1,0.2-0.2,0.4-0.3,0.5s-0.1,0.2-0.2,0.3c-0.1,0.2-0.2,0.4-0.3,0.6
		c-0.2,0.3-0.3,0.6-0.4,0.9c-0.2,0.4-0.3,0.7-0.4,1.1c0,0.1-0.1,0.2-0.1,0.3s0,0.1,0,0.2v0.1c0,0,0,0.1,0.1,0.1c0,0,0,0,0.1,0.1
		c0.1,0,0.2,0,0.2,0l0.1-0.1c0.1-0.1,0.1-0.1,0.2-0.2c0.1,0,0.1-0.1,0-0.2c0-0.1-0.1-0.1-0.2,0c-0.1,0.1-0.2,0.1-0.3,0.2
		c0-0.1,0-0.1,0-0.2c0-0.1,0.1-0.2,0.1-0.3c0.1-0.2,0.1-0.3,0.2-0.5c0.2-0.4,0.4-0.8,0.6-1.1c0.1-0.1,0.1-0.2,0.2-0.3
		c0.1-0.2,0.2-0.3,0.3-0.5c0.1-0.1,0.1-0.2,0.2-0.3c0.1-0.2,0.2-0.3,0.3-0.5c0.1-0.1,0.2-0.2,0.2-0.3c0.1-0.1,0.2-0.3,0.3-0.4
		c0.4-0.5,0.8-1,1.2-1.5s0.9-1,1.3-1.5c0.2-0.2,0.3-0.3,0.5-0.5c0,0.1,0,0.1,0,0.2c0,0.1,0,0.2,0,0.4s0,0.3,0,0.5s0,0.5-0.1,0.7
		c-0.1,0.6-0.2,1.2-0.4,1.8c-0.1,0.3-0.2,0.5-0.3,0.8c-0.1,0.2-0.1,0.4-0.2,0.5c-0.1,0.3-0.2,0.6-0.3,0.9c-0.1,0.3-0.3,0.6-0.4,0.9
		c-0.1,0.1-0.2,0.3-0.3,0.4c-0.1,0.1-0.2,0.3-0.3,0.4c-0.1,0.2-0.3,0.4-0.4,0.5c-0.1,0.2-0.3,0.3-0.4,0.5c-0.1,0.1-0.1,0.1-0.2,0.2
		c-0.1,0.1-0.2,0.2-0.3,0.3s-0.1,0.1-0.2,0.2c-0.1,0.1-0.2,0.2-0.3,0.3s-0.3,0.2-0.5,0.4l0.1-0.1c-0.2,0.1-0.4,0.3-0.6,0.4
		c-0.1,0.1-0.2,0.2-0.4,0.3l0,0c-0.1,0-0.1,0-0.2,0.1c0,0-0.1,0-0.1,0.1l0,0l0,0c-0.2,0.1-0.3,0.2-0.3,0.4c-0.1,0.2,0,0.5,0.2,0.7
		s0.4,0.2,0.7,0.2h0.1c0.2,0,0.3-0.2,0.4-0.3c0-0.1,0.1-0.1,0.1-0.2l0.1-0.1c0.1-0.1,0.2-0.2,0.4-0.3c0.1-0.1,0.3-0.2,0.4-0.3
		c0.1-0.1,0.3-0.2,0.4-0.3c0.2-0.1,0.3-0.3,0.5-0.4l0.1-0.1c0.1-0.1,0.2-0.2,0.3-0.3s0.2-0.2,0.3-0.3c0.1-0.2,0.3-0.3,0.4-0.5
		c0.1-0.2,0.3-0.3,0.4-0.5c0.2-0.3,0.4-0.6,0.6-0.8c0.1-0.2,0.2-0.4,0.3-0.6c0.1-0.3,0.2-0.5,0.4-0.8c0.1-0.2,0.2-0.4,0.2-0.6
		c0.1-0.2,0.1-0.3,0.2-0.5c0.1-0.2,0.1-0.3,0.2-0.5c0.2-0.6,0.4-1.3,0.5-1.9c0-0.3,0.1-0.5,0.1-0.8c0-0.2,0-0.3,0-0.5s0-0.4,0-0.6
		c0-0.1,0-0.1,0-0.2c0-0.1,0-0.2,0-0.3c0-0.2,0-0.5-0.1-0.7c0-0.1,0-0.2-0.1-0.3c0-0.2-0.1-0.3-0.2-0.4c-0.1-0.1-0.2-0.1-0.3-0.2
		c-0.1,0-0.1,0-0.2,0C47.4,7.2,47.3,7.2,47.2,7.2L47.2,7.2L47.2,7.2z M47,8.1L47,8.1L47,8.1L47,8.1L47,8.1z M41.6,16.7L41.6,16.7
		L41.6,16.7L41.6,16.7L41.6,16.7z M41.6,16.8C41.6,16.8,41.6,16.9,41.6,16.8C41.6,16.9,41.6,16.8,41.6,16.8L41.6,16.8L41.6,16.8z"/>
	<path d="M31,12.2c-0.2,0-0.3,0-0.5,0c-0.1,0-0.3,0-0.4,0c-0.3,0-0.7,0.1-1,0.1c-0.5,0.1-1,0.1-1.5,0.2c-0.2,0-0.4,0.1-0.6,0.2
		c-0.2,0.1-0.4,0.2-0.7,0.3c-0.2,0.1-0.3,0.2-0.5,0.2c-0.2,0.1-0.3,0.2-0.5,0.3s-0.3,0.2-0.5,0.3c-0.1,0.1-0.2,0.1-0.2,0.2
		c-0.1,0.1-0.2,0.2-0.3,0.2c-0.1,0.1-0.2,0.2-0.3,0.3c-0.1,0.1-0.2,0.2-0.3,0.3c-0.1,0.1-0.3,0.3-0.4,0.4c-0.1,0.1-0.2,0.3-0.3,0.4
		c-0.1,0.1-0.2,0.2-0.3,0.3c-0.2,0.3-0.5,0.6-0.7,0.9c-0.1,0.2-0.2,0.3-0.4,0.5c-0.1,0.2-0.2,0.4-0.3,0.5c-0.1,0.2-0.2,0.3-0.3,0.5
		c-0.1,0.1-0.1,0.3-0.2,0.4l0,0l-0.1,0.1c0,0.1-0.1,0.1-0.1,0.2c-0.1,0.2-0.1,0.5,0,0.7l0,0c0.1,0.1,0.1,0.2,0.3,0.3
		c0.1,0,0.1,0,0.2,0.1c0.1,0,0.2,0,0.4,0c0,0,0,0,0.1,0s0.2-0.1,0.3-0.2c0.1-0.1,0.1-0.1,0.1-0.2c0.1-0.1,0.2-0.3,0.3-0.5
		c0.1-0.2,0.2-0.4,0.3-0.6c0.1-0.2,0.2-0.4,0.3-0.6c0.1-0.2,0.2-0.3,0.3-0.4c0.2-0.2,0.4-0.5,0.6-0.7s0.4-0.4,0.6-0.6
		c0.1-0.1,0.3-0.3,0.4-0.4c0.1-0.1,0.2-0.2,0.3-0.3c0.1-0.1,0.2-0.2,0.3-0.3c0.1-0.1,0.2-0.2,0.3-0.2c0.1-0.1,0.3-0.2,0.4-0.3
		s0.2-0.2,0.4-0.2c0.3-0.2,0.7-0.4,1-0.6c0.3-0.1,0.6-0.2,0.9-0.2s0.7-0.1,1-0.1s0.6-0.1,0.9-0.1s0.7,0,1,0s0.7,0,1,0
		c0.2,0,0.5,0,0.7,0.1c0.2,0,0.4,0,0.6,0c0.3,0,0.5,0,0.8,0c0.2,0,0.4,0,0.6,0.1c0.3,0,0.7,0.1,1,0.2c0.2,0,0.4,0.1,0.6,0.1
		c0.1,0,0.2,0,0.3,0.1c0.2,0.1,0.5,0.1,0.7,0.2c0.2,0.1,0.5,0.2,0.7,0.3c0.1,0,0.2,0.1,0.2,0.1c0.1,0,0.2,0,0.3,0s0.3,0,0.4,0
		c0.2,0,0.3-0.1,0.5-0.2c0.1,0,0.1-0.1,0.2-0.1c0.3-0.2,0.7-0.4,1-0.5s0.6-0.2,0.9-0.2h0.1c0,0.1,0.1,0.1,0.1,0.2
		c0.1,0.1,0.3,0.2,0.4,0.2c0.2,0,0.3-0.1,0.4-0.2c0.1-0.1,0.2-0.3,0.2-0.4c0-0.1,0-0.2,0-0.3s0-0.2-0.1-0.3c0-0.1-0.1-0.1-0.1-0.2
		c0,0-0.1-0.1-0.2-0.1c-0.1,0-0.1-0.1-0.2-0.1h-0.1c-0.1,0-0.2,0-0.3,0c-0.2,0-0.3,0-0.5,0c-0.3,0-0.5,0.1-0.8,0.1
		c-0.2,0.1-0.5,0.2-0.7,0.3s-0.4,0.2-0.6,0.3c-0.2,0.1-0.4,0.2-0.5,0.3h-0.1l0,0c-0.2-0.1-0.4-0.2-0.6-0.3c-0.2-0.1-0.4-0.2-0.7-0.3
		c-0.1,0-0.3-0.1-0.4-0.1c-0.3-0.1-0.6-0.1-1-0.2c-0.4-0.1-0.7-0.1-1.1-0.2c-0.4-0.1-0.8-0.1-1.2-0.1c-0.3,0-0.7,0-1-0.1
		c-0.2,0-0.3,0-0.5-0.1c-0.2,0-0.3,0-0.5,0s-0.5,0-0.7,0C31.1,12.2,31.1,12.2,31,12.2L31,12.2L31,12.2z"/>
	<path d="M12.5,19.6c-0.1,0-0.2,0.1-0.3,0.2c0,0.1-0.1,0.1-0.1,0.2c0,0.1-0.1,0.1-0.1,0.2c0,0.1,0,0.1-0.1,0.2c0,0.1,0,0.3-0.1,0.4
		c0,0.1,0,0.2,0,0.3c0,0.3,0,0.5,0,0.8c0.1,0.5,0.2,1,0.3,1.6c0.1,0.2,0.1,0.4,0.2,0.7c0.1,0.3,0.2,0.5,0.3,0.8
		c0.1,0.2,0.2,0.4,0.2,0.5c0.1,0.1,0.2,0.3,0.2,0.4c0.1,0.1,0.1,0.2,0.2,0.3c0.1,0.1,0.2,0.2,0.2,0.3c0.1,0.1,0.2,0.2,0.3,0.3
		c0.4,0.3,0.9,0.4,1.4,0.4s1-0.2,1.5-0.3c0.2-0.1,0.4-0.1,0.6-0.2c0.2-0.1,0.3-0.1,0.5-0.2c0.2-0.1,0.3-0.1,0.5-0.2
		c0.3-0.2,0.6-0.3,0.9-0.5s0.6-0.3,0.8-0.5c0.1,0,0.1-0.1,0.2-0.1l0.1-0.2l0,0c0.1-0.1,0.1-0.2,0.1-0.3s0-0.2-0.1-0.3
		c0-0.1-0.1-0.1-0.2-0.2c-0.1-0.1-0.2-0.1-0.4-0.1c-0.1,0-0.1,0-0.2,0s-0.1,0-0.2,0.1l-0.1,0.1L19,24.4c-0.2,0.1-0.4,0.3-0.6,0.4
		c-0.2,0.2-0.5,0.3-0.7,0.4c-0.2,0.1-0.5,0.3-0.7,0.4c-0.1,0-0.2,0.1-0.3,0.1c-0.1,0-0.2,0.1-0.3,0.1c-0.4,0.2-0.8,0.3-1.3,0.4
		c-0.1,0-0.3,0-0.4,0c-0.1,0-0.2,0-0.2-0.1c-0.1,0-0.1-0.1-0.2-0.1c-0.1-0.1-0.1-0.1-0.2-0.2c-0.2-0.3-0.3-0.6-0.5-0.9
		c-0.1-0.1-0.1-0.2-0.1-0.3s-0.1-0.2-0.1-0.3c-0.3-0.7-0.5-1.5-0.6-2.3c-0.1-0.4-0.1-0.8,0-1.3c0.1,0,0.1,0,0.2,0
		c0.2,0,0.3,0.1,0.5,0.1c0.4,0.1,0.7,0.1,1.1,0.1c0.4,0,0.7,0.1,1.1,0.1c0.2,0,0.3,0,0.5,0c0.2,0,0.3,0,0.5,0c0.1,0,0.2,0,0.3,0
		c0.1,0,0.3,0.1,0.4,0.1c0.3,0.1,0.6,0.2,1,0.3c0.5,0.2,1,0.4,1.5,0.7c0.3,0.1,0.6,0.3,0.8,0.4c0.3,0.1,0.5,0.3,0.8,0.5
		c0.1,0,0.1,0,0.2,0.1c0.1,0,0.2,0,0.3,0c0.2,0,0.3-0.1,0.4-0.3c0.1-0.1,0.1-0.3,0.1-0.5c0-0.1,0-0.1-0.1-0.2
		c-0.1-0.1-0.1-0.2-0.2-0.2c-0.1-0.1-0.3-0.2-0.4-0.3c-0.1,0-0.2-0.1-0.2-0.1c-0.1,0-0.1-0.1-0.2-0.1c-0.3-0.1-0.6-0.3-0.9-0.4
		c-0.3-0.1-0.6-0.3-0.9-0.4c-0.2-0.1-0.4-0.2-0.7-0.3c-0.3-0.1-0.7-0.2-1-0.3c-0.2,0-0.4-0.1-0.6-0.1s-0.3,0-0.5-0.1
		c-0.4,0-0.7,0-1.1-0.1c-0.3,0-0.6,0-0.9,0c-0.3,0-0.7,0-1-0.1h-0.1c-0.1,0-0.2,0-0.3-0.1c0,0,0,0-0.1,0l-0.1-0.1
		c-0.1-0.1-0.2-0.1-0.3-0.1C12.6,19.5,12.6,19.5,12.5,19.6L12.5,19.6L12.5,19.6z"/>
	<path d="M16.8,26.9c-0.1,0-0.2,0-0.2,0c-0.2,0-0.3,0.2-0.4,0.3c-0.2,0.2-0.4,0.5-0.5,0.8c-0.2,0.6-0.4,1.2-0.3,1.8
		c0,0.2,0,0.3,0.1,0.4c0,0.2,0.1,0.3,0.2,0.5c0.1,0.1,0.1,0.3,0.2,0.4c0.1,0.1,0.2,0.3,0.2,0.4c0.1,0.1,0.2,0.2,0.3,0.2
		c-0.1,0.1-0.1,0.2-0.2,0.2c-0.1,0.2-0.3,0.5-0.3,0.7c-0.1,0.4-0.2,0.8-0.2,1.2c0,0.1,0,0.2,0,0.3c0,0.3,0,0.6,0.1,0.8
		c0,0.2,0.1,0.4,0.1,0.6c0,0.1,0.1,0.3,0.1,0.4c0.1,0.2,0.1,0.3,0.2,0.5c0.1,0.1,0.1,0.3,0.2,0.4c0.2,0.3,0.4,0.6,0.6,0.9
		c0.3,0.3,0.6,0.6,0.9,0.7c0.1,0.1,0.3,0.2,0.4,0.2c0.2,0.1,0.5,0.2,0.7,0.3c0.3,0.1,0.6,0.2,0.9,0.3c0.2,0.1,0.4,0.2,0.7,0.2
		c0.3,0,0.7-0.2,0.8-0.6c0-0.1,0-0.3,0-0.4c0-0.1-0.1-0.1-0.1-0.2c-0.1-0.1-0.2-0.2-0.3-0.3c-0.2-0.1-0.4-0.1-0.5-0.2
		c-0.2,0-0.4,0-0.5,0c-0.1,0-0.3-0.1-0.4-0.1s-0.2,0-0.2-0.1c-0.1,0-0.2-0.1-0.2-0.1c-0.1-0.1-0.3-0.1-0.4-0.2
		c-0.2-0.1-0.3-0.2-0.5-0.3c-0.2-0.2-0.4-0.3-0.5-0.5c-0.2-0.3-0.4-0.6-0.5-0.9c-0.1-0.1-0.1-0.3-0.1-0.4c-0.1-0.2-0.1-0.4-0.2-0.7
		c0-0.2,0-0.3,0-0.5s0-0.3,0-0.5s0.1-0.4,0.1-0.5c0.1-0.3,0.3-0.6,0.5-0.8c0-0.1,0.1-0.1,0.1-0.2c0.1-0.1,0.1-0.2,0.2-0.3
		c0-0.1,0-0.2,0-0.3s-0.1-0.2-0.2-0.3s-0.3-0.2-0.5-0.2h-0.1c-0.1,0-0.1,0-0.2-0.1l0,0l0,0c-0.1-0.2-0.2-0.4-0.3-0.6
		c-0.1-0.2-0.1-0.3-0.1-0.5s0-0.4,0-0.6c0-0.3,0.1-0.6,0.2-0.9c0.1-0.2,0.2-0.3,0.2-0.4c0,0,0-0.1,0.1-0.1l0,0c0.1,0,0.2,0,0.3,0
		c0.1-0.1,0.2-0.1,0.2-0.2c0-0.1,0-0.2,0-0.3s-0.1-0.2-0.2-0.2C16.9,26.9,16.9,26.9,16.8,26.9L16.8,26.9L16.8,26.9L16.8,26.9z
		 M16.9,27.7C16.9,27.7,16.8,27.7,16.9,27.7C16.8,27.7,16.9,27.7,16.9,27.7L16.9,27.7L16.9,27.7z"/>
	<path d="M22.7,33.6c-0.2,0.1-0.4,0.3-0.5,0.5c-0.2,0.2-0.3,0.4-0.4,0.6c-0.1,0.2-0.2,0.4-0.3,0.6c-0.1,0.2-0.2,0.5-0.3,0.7
		c-0.1,0.2-0.1,0.4-0.1,0.6c0,0.1,0,0.2-0.1,0.3c0,0.1,0,0.3,0,0.4c0,0.1,0,0.3,0.1,0.4c0,0.1,0.1,0.2,0.1,0.3s0.1,0.2,0.2,0.2
		c0.1,0.1,0.1,0.1,0.2,0.2c0.1,0.1,0.2,0.2,0.3,0.3c0.3,0.3,0.7,0.5,1.1,0.6c0.2,0.1,0.5,0.1,0.8,0.2s0.6,0.1,0.9,0.2
		c0.6,0.1,1.2,0.1,1.8,0.2c0.2,0,0.3,0,0.5,0.1c0.2,0,0.3,0,0.5,0c0.3,0,0.6,0.1,1,0c0.2,0,0.5-0.1,0.7-0.1s0.3-0.1,0.5-0.1
		c0.4-0.1,0.7-0.2,1.1-0.4c0.3-0.1,0.6-0.3,0.8-0.5c0.3-0.2,0.6-0.5,0.9-0.7c0.1-0.1,0.2-0.2,0.3-0.3s0.2-0.2,0.3-0.4
		s0.3-0.3,0.4-0.5c0.1-0.2,0.2-0.3,0.3-0.5c0-0.1,0.1-0.2,0.1-0.3c0,0,0-0.1,0.1-0.1c0-0.1,0-0.2,0-0.3l0,0c0-0.2-0.1-0.4-0.3-0.5
		c-0.3-0.2-0.7-0.1-0.8,0.2c-0.1,0.1-0.1,0.3-0.1,0.4l0,0c0,0.1-0.1,0.2-0.1,0.2c-0.2,0.2-0.4,0.4-0.5,0.5c-0.2,0.2-0.4,0.4-0.6,0.5
		c-0.2,0.2-0.5,0.3-0.7,0.5c-0.3,0.2-0.5,0.3-0.8,0.4c-0.2,0.1-0.4,0.1-0.6,0.2c-0.2,0.1-0.4,0.1-0.5,0.1c-0.3,0-0.6,0-0.9,0
		c-0.2,0-0.3,0-0.5,0s-0.3,0-0.5,0c-0.1,0-0.3,0-0.4,0c-0.2,0-0.3,0-0.5,0c-0.3,0-0.6,0-1,0h-0.1c-0.4-0.1-0.8-0.2-1.3-0.3
		c-0.2,0-0.4-0.1-0.6-0.1c-0.1,0-0.2-0.1-0.3-0.1c-0.1,0-0.2,0-0.3-0.1c-0.1,0-0.1-0.1-0.2-0.1l0,0l0,0v-0.1c0-0.1,0-0.2,0-0.3
		c0.1-0.4,0.1-0.8,0.3-1.2c0.1-0.2,0.2-0.4,0.3-0.6c0.1-0.2,0.2-0.4,0.3-0.6c0-0.1,0.1-0.1,0.2-0.2l0.1-0.1c0.2-0.2,0.3-0.5,0.2-0.7
		c-0.1-0.2-0.3-0.3-0.5-0.3C22.9,33.5,22.8,33.5,22.7,33.6L22.7,33.6L22.7,33.6z"/>
	<path d="M31,38.3c0,0.2,0.1,0.4,0.2,0.6c0.2,0.2,0.4,0.2,0.6,0.2c0.6,0,1.3,0,1.9,0c0.3,0,0.6,0,0.9,0c0.1,0,0.3,0,0.4,0
		c0.1,0,0.2,0,0.4-0.1c0.1,0,0.1,0,0.2,0c0.1,0,0.2-0.1,0.3-0.2s0.2-0.3,0.2-0.5c0-0.1,0-0.2-0.1-0.4l-0.1-0.1
		c-0.1-0.1-0.2-0.2-0.3-0.2c-0.3,0-0.6-0.1-0.9-0.1c-0.3,0-0.6,0-0.9,0c-0.6,0-1.3,0-1.9,0l0,0C31.4,37.5,31,37.9,31,38.3L31,38.3
		L31,38.3z"/>
	<path d="M60.4,26.2c-0.4,0-0.7,0.1-1.1,0.2c-0.5,0.1-1,0.2-1.4,0.3c-0.6,0.1-1.2,0.4-1.7,0.6c-0.4,0.1-0.7,0.3-1.1,0.4
		c-0.2,0.1-0.4,0.2-0.7,0.3s-0.7,0.3-1,0.4c-0.2,0.1-0.3,0.1-0.5,0.2c-0.4,0.1-0.8,0.3-1.2,0.4c-0.8,0.2-1.6,0.4-2.4,0.5
		c-0.4,0-0.7,0.1-1.1,0.1c-0.4,0-0.8,0.1-1.1,0.1c-0.4,0-0.8,0.1-1.2,0.1c-0.2,0-0.3,0.1-0.5,0.1c-0.1,0-0.2,0.1-0.3,0.1
		s-0.2,0.1-0.3,0.1c-0.2,0.1-0.3,0.4-0.2,0.6c0.1,0.2,0.4,0.3,0.6,0.2h0.1c0.1-0.1,0.3-0.1,0.4-0.1c0.1,0,0.3-0.1,0.5-0.1
		s0.4,0,0.6-0.1c0.3,0,0.5,0,0.8-0.1c0.5-0.1,1-0.1,1.5-0.1c1-0.1,2-0.3,3-0.6s2-0.8,3-1.2h0.1c0.3-0.1,0.7-0.3,1-0.4
		c0.1-0.1,0.3-0.1,0.4-0.2c0.2-0.1,0.3-0.1,0.5-0.2c0.2-0.1,0.5-0.2,0.7-0.2c0.5-0.1,1-0.2,1.5-0.3c0.3-0.1,0.7-0.1,1-0.2h0.1
		c0.1,0,0.2-0.1,0.2-0.2c0.1-0.1,0.1-0.2,0-0.3c0-0.1-0.1-0.2-0.2-0.2h-0.1h-0.1C60.4,26.2,60.4,26.2,60.4,26.2L60.4,26.2L60.4,26.2
		z M49.4,29.5C49.3,29.5,49.3,29.5,49.4,29.5C49.3,29.5,49.3,29.5,49.4,29.5L49.4,29.5L49.4,29.5z"/>
	<path d="M52.8,30.9c-0.3,0-0.6,0-0.9,0c-0.4,0-0.8,0-1.2,0c-0.3,0-0.7,0-1,0s-0.6,0-0.9,0c-0.8,0-1.6,0.1-2.4,0.1
		c-0.4,0-0.8,0-1.2,0.1c-0.2,0-0.3,0.1-0.4,0.2c-0.1,0.1-0.2,0.3-0.2,0.4s0.1,0.3,0.2,0.4c0.1,0.1,0.3,0.2,0.4,0.2
		c0.5,0,1-0.1,1.5-0.1s1,0,1.5-0.1c0.3,0,0.5,0,0.8,0c0.4,0,0.8,0,1.2,0c0.3,0,0.5,0,0.8,0c0.2,0,0.5,0,0.7,0c0.1,0,0.2,0,0.3,0
		c0.4,0,0.7,0,1.1-0.1c0.3,0,0.7-0.1,1-0.1s0.6-0.1,0.9-0.1h0.1c0.1,0,0.2-0.1,0.2-0.1c0.1-0.1,0.1-0.2,0.1-0.3
		c0-0.3-0.2-0.5-0.5-0.5h-0.1C54.1,30.8,53.5,30.9,52.8,30.9L52.8,30.9L52.8,30.9z"/>
	<path d="M45.7,34.1c-0.1,0-0.2,0.1-0.2,0.2c0,0.1-0.1,0.1-0.1,0.2v0.1c0,0.1,0.1,0.1,0.1,0.2l0.1,0.1l0.1,0.1
		c0.1,0.1,0.2,0.1,0.3,0l0,0c0.2,0.1,0.3,0.2,0.5,0.3s0.5,0.3,0.7,0.5c0.3,0.3,0.6,0.5,0.9,0.8c0.3,0.2,0.5,0.5,0.8,0.7
		c0.1,0.1,0.2,0.1,0.3,0.1s0.2,0,0.3-0.1c0.2-0.2,0.2-0.5,0-0.6c-0.3-0.3-0.7-0.6-1-0.9c-0.3-0.2-0.6-0.5-0.9-0.7
		c-0.3-0.2-0.5-0.4-0.8-0.5c-0.1-0.1-0.3-0.1-0.4-0.2c-0.1,0-0.2-0.1-0.2-0.1c-0.1,0-0.2,0-0.3-0.1L45.7,34.1
		C45.8,34.1,45.7,34.1,45.7,34.1L45.7,34.1L45.7,34.1z M46.1,34.3L46.1,34.3L46.1,34.3L46.1,34.3L46.1,34.3L46.1,34.3z"/>
	<path d="M45.5,15.4c-0.1,0.1-0.1,0.2,0,0.3s0.2,0.2,0.2,0.3l0,0l0,0l0,0l0,0c0.1,0.1,0.2,0.2,0.2,0.3s0.1,0.1,0.2,0
		c0.1,0,0.1-0.1,0-0.2c-0.1-0.1-0.2-0.3-0.3-0.4h0.1c0,0,0,0,0.1,0c0.3,0.1,0.7,0.3,1,0.5c0.2,0.1,0.4,0.2,0.5,0.3
		c0.2,0.1,0.4,0.2,0.6,0.4l0.1,0.1l0.1,0.1c0,0,0,0,0,0.1l0,0l0,0c0,0.1-0.1,0.1-0.1,0.1c-0.2,0.1-0.4,0.2-0.6,0.3
		c-0.2,0.1-0.4,0.2-0.6,0.2c-0.2,0.1-0.4,0.1-0.6,0.3v0.1c0,0.1,0,0.1,0,0.2c0,0.1,0.1,0.2,0.1,0.3c0.1,0.1,0.3,0.3,0.4,0.4
		c0.2,0.1,0.5,0.3,0.7,0.4c0.1,0.1,0.3,0.1,0.4,0.2c0.3,0.2,0.6,0.3,0.9,0.6c0.3,0.3,0.6,0.5,0.9,0.8c0.2,0.2,0.3,0.3,0.5,0.5
		s0.4,0.4,0.7,0.6c0.3,0.3,0.6,0.5,0.8,0.8c0.1,0.2,0.2,0.4,0.3,0.5c0.1,0.2,0.1,0.4,0.2,0.6c0,0.3,0,0.5,0,0.8c0,0.2,0,0.5,0,0.7
		c0,0.1,0,0.2-0.1,0.3c0,0.1-0.1,0.1-0.1,0.2c-0.1,0.2-0.3,0.3-0.4,0.4c-0.1,0-0.1,0.1-0.2,0.1c-0.1,0-0.2,0.1-0.3,0.1h-0.1
		c0,0,0,0-0.1,0c0,0,0,0-0.1,0c-0.2-0.1-0.4-0.3-0.5-0.5c-0.1-0.1-0.1-0.1-0.2-0.2c-0.1-0.1-0.1-0.2-0.2-0.2
		c-0.1-0.1-0.1-0.1-0.2-0.2c-0.2-0.3-0.4-0.6-0.6-0.8c-0.2-0.3-0.4-0.6-0.7-0.8c-0.1-0.1-0.2-0.1-0.3-0.2c-0.1-0.1-0.2-0.1-0.3-0.1
		s-0.1,0-0.2-0.1h-0.1c-0.1,0-0.3,0-0.4,0c-0.2,0.1-0.4,0.1-0.4,0.3l0,0c-0.1,0.1-0.1,0.2-0.1,0.3s0,0.2,0,0.2l0,0
		c0,0.1,0.1,0.1,0.1,0.2c0,0,0,0.1,0.1,0.1c0.1,0.1,0.2,0.2,0.3,0.3c0,0,0.1,0.1,0.2,0.1c0.1,0.1,0.3,0.2,0.4,0.3
		c0.2,0.2,0.4,0.3,0.6,0.5c0.1,0.1,0.2,0.1,0.2,0.2c0.1,0.1,0.1,0.1,0.2,0.2l0,0l0,0c-0.1,0-0.2,0.1-0.4,0.1c-0.3,0-0.6,0-1,0
		c-0.3,0-0.5,0-0.8,0c-0.1,0-0.1,0-0.2-0.1c0,0,0,0-0.1,0c0,0,0,0-0.1-0.1S46,26.1,45.9,26c-0.1-0.1-0.2-0.1-0.3-0.1l0,0l0,0
		c-0.1,0-0.1,0-0.2,0c-0.1,0-0.3,0-0.4,0.1c-0.1,0.1-0.2,0.1-0.3,0.3c-0.1,0.1-0.1,0.3-0.1,0.4c0,0.1,0.1,0.4,0.1,0.5l0,0
		c0.1,0.2,0.2,0.2,0.4,0.4c0,0,0.1,0,0.1,0.1c0.1,0.1,0.2,0.1,0.4,0.2c0.1,0,0.2,0,0.2,0.1c0.3,0,0.5,0.1,0.8,0.1c0.2,0,0.3,0,0.5,0
		s0.3,0,0.5,0s0.5-0.1,0.7-0.1s0.3-0.1,0.5-0.1c0.2-0.1,0.3-0.1,0.5-0.2c0.1,0,0.1-0.1,0.2-0.2c0.1-0.1,0.1-0.1,0.2-0.2
		c0-0.1,0.1-0.1,0.1-0.2l0.1,0.1c0.1,0.1,0.3,0.2,0.4,0.3c0.1,0.1,0.2,0.1,0.3,0.2h0.1c0.1,0,0.2,0,0.3,0s0.3,0,0.4-0.1
		c0.1,0,0.2-0.1,0.3-0.1c0.2-0.1,0.3-0.2,0.5-0.3c0.1-0.1,0.2-0.2,0.3-0.3c0.2-0.2,0.3-0.4,0.4-0.7c0.1-0.3,0.1-0.7,0.2-1
		c0-0.2,0-0.3,0-0.5c0-0.4,0-0.8-0.1-1.1c-0.1-0.5-0.4-0.9-0.7-1.3c-0.2-0.2-0.5-0.5-0.7-0.7c-0.3-0.2-0.5-0.4-0.8-0.7
		c-0.2-0.2-0.4-0.3-0.5-0.5c-0.3-0.3-0.6-0.6-0.9-0.8c-0.3-0.2-0.7-0.4-1-0.6c-0.2-0.1-0.3-0.2-0.5-0.2c-0.3-0.1-0.6-0.3-0.8-0.4
		h0.1c0,0,0,0-0.1,0c0.5-0.2,1-0.4,1.4-0.8c0.1-0.1,0.1-0.2,0.2-0.2c0.1-0.1,0.1-0.2,0-0.3c0-0.2-0.2-0.4-0.3-0.6
		c-0.1-0.1-0.3-0.2-0.4-0.2c-0.1,0-0.1-0.1-0.2-0.1c-0.2-0.1-0.3-0.2-0.5-0.2c-0.2-0.1-0.3-0.1-0.5-0.2c-0.4-0.2-0.7-0.3-1.1-0.4
		c-0.1,0-0.1,0-0.2-0.1h-0.1C45.6,15.4,45.5,15.4,45.5,15.4L45.5,15.4L45.5,15.4z M45.9,15.8L45.9,15.8L45.9,15.8L45.9,15.8
		L45.9,15.8z M48.4,17.4C48.4,17.4,48.3,17.4,48.4,17.4C48.3,17.4,48.4,17.4,48.4,17.4L48.4,17.4L48.4,17.4z M47,18.4L47,18.4
		L47,18.4L47,18.4L47,18.4z M45.7,16L45.7,16L45.7,16L45.7,16L45.7,16L45.7,16z"/>
	<path d="M25.8,20.5c-0.1,0-0.3,0.1-0.4,0.1c-0.1,0.1-0.2,0.1-0.3,0.2c0,0.1-0.1,0.1-0.1,0.2c0,0.1-0.1,0.1-0.1,0.2
		c0,0.1,0,0.1,0,0.2v0.1c0,0.1,0,0.2,0,0.4s0,0.4,0.1,0.6c0,0.1,0.1,0.2,0.1,0.2c0.1,0.3,0.3,0.7,0.5,1c0,0.1,0.1,0.2,0.1,0.2
		c0,0.1,0.1,0.1,0.1,0.2c0,0.1,0.1,0.1,0.1,0.2l0,0c-0.2,0-0.4-0.1-0.6-0.2C25.2,24,25,24,24.9,23.9c-0.1-0.1-0.3-0.2-0.4-0.3
		s-0.2-0.1-0.3-0.1c-0.1,0-0.3,0-0.3,0.1c-0.1,0.1-0.2,0.2-0.3,0.4c-0.1,0.1-0.2,0.3-0.3,0.4c-0.4,0.6-0.7,1.1-1.1,1.7
		c-0.2,0.4-0.5,0.7-0.7,1.1c-0.1,0.1-0.1,0.2,0,0.3c0,0.1,0.1,0.2,0.2,0.2s0.2,0.1,0.3,0c0.1,0,0.2-0.1,0.2-0.2
		c0.4-0.6,0.8-1.2,1.2-1.8c0.2-0.3,0.4-0.5,0.5-0.8c0.1-0.2,0.3-0.4,0.4-0.6c0.1,0,0.1,0.1,0.2,0.1s0.2,0.1,0.2,0.1
		c0.1,0,0.1,0.1,0.2,0.1c0.2,0.1,0.3,0.1,0.5,0.2c0.1,0,0.2,0.1,0.3,0.1c0.2,0.1,0.5,0.1,0.7,0c0.1,0,0.1,0,0.2,0s0.1-0.1,0.2-0.1
		s0.1-0.1,0.2-0.2c0-0.1,0.1-0.1,0.1-0.2c0-0.1,0-0.1,0-0.2c0-0.1-0.1-0.2-0.1-0.3c-0.1-0.1-0.2-0.3-0.3-0.4
		c-0.1-0.1-0.2-0.3-0.2-0.4c-0.1-0.1-0.1-0.2-0.2-0.3c0-0.1-0.1-0.2-0.1-0.4c-0.1-0.2-0.1-0.4-0.2-0.5c0-0.1,0-0.3,0-0.4l0,0l0,0
		c0.1,0,0.1,0,0.2-0.1c0.1,0,0.3,0,0.4,0c0.4,0.1,0.7,0.2,1.1,0.3c0.1,0,0.2,0.1,0.3,0.2c0.1,0.1,0.2,0.2,0.3,0.2h0.1
		c0.1,0,0.1,0,0.2,0s0.2-0.1,0.2-0.2c0.1-0.2,0-0.4-0.1-0.5l0,0c-0.1-0.1-0.2-0.2-0.3-0.2c-0.1,0-0.1-0.1-0.2-0.1S28,21,27.9,21
		c-0.1,0-0.1-0.1-0.2-0.1c-0.4-0.2-0.5-0.2-0.6-0.2c-0.2-0.1-0.4-0.1-0.5-0.1c-0.2,0-0.3,0-0.5,0C26,20.5,25.9,20.5,25.8,20.5
		L25.8,20.5L25.8,20.5z M28.4,21.3L28.4,21.3L28.4,21.3L28.4,21.3L28.4,21.3z M25.8,21.4L25.8,21.4L25.8,21.4L25.8,21.4L25.8,21.4z
		 M24.4,24.2L24.4,24.2L24.4,24.2L24.4,24.2L24.4,24.2z"/>
	<path d="M36,16.2c-0.5,0-1,0.1-1.4,0.3c-0.2,0-0.3,0.1-0.5,0.1c-0.1,0-0.2,0.1-0.3,0.1c0-0.1-0.1-0.1-0.1-0.2
		c-0.1-0.1-0.1-0.1-0.2-0.2c0,0,0,0-0.1,0s-0.1-0.1-0.2-0.1c-0.1,0-0.2,0-0.3,0c-0.2,0-0.3,0.1-0.5,0.1c-0.1,0-0.2,0.1-0.3,0.1
		c-0.1,0.1-0.2,0.1-0.2,0.2c-0.1,0.1-0.2,0.2-0.3,0.4c-0.1,0.1-0.1,0.2-0.1,0.3c-0.1,0-0.2-0.1-0.4-0.1c-0.4-0.1-0.7-0.1-1.1-0.2
		c-0.3,0-0.5-0.1-0.8-0.1c-0.1,0-0.3,0-0.4,0h-0.1c0,0-0.1,0-0.1,0.1l-0.1,0.1c-0.1,0.1-0.2,0.4-0.1,0.6c0,0.1,0.1,0.2,0.2,0.3
		c0.1,0,0.1,0.1,0.2,0.1c0.3,0.2,0.6,0.3,0.9,0.5s0.6,0.4,0.9,0.5c0.1,0.1,0.2,0.2,0.3,0.2c0.2,0.1,0.3,0.2,0.5,0.3l0.1,0.1
		c0,0,0.1,0,0.1,0.1c0.1,0,0.2,0.1,0.2,0.1c0.1,0,0.2,0,0.3-0.1s0.1-0.2,0.1-0.3s0-0.3-0.1-0.3c-0.3-0.2-0.6-0.5-0.9-0.7
		c-0.2-0.1-0.3-0.2-0.5-0.3c0.2,0,0.3,0,0.5,0.1l0,0c0.2,0,0.4,0.1,0.5,0.1s0.2,0.1,0.3,0.1c0.1,0,0.2,0,0.3-0.1
		c0.1,0,0.2-0.1,0.2-0.2c0.1-0.2,0.1-0.4,0.1-0.5l0,0c0.1-0.1,0.1-0.1,0.2-0.2c0.1-0.1,0.2-0.1,0.3-0.1v0.1l0.1,0.1
		c0.1,0.1,0.3,0.2,0.5,0.2c0.1,0,0.1,0,0.2,0H34h0.1c0.2-0.1,0.4-0.1,0.7-0.2c0.4-0.1,0.8-0.2,1.2-0.3c0.3,0,0.6,0,0.9,0
		c0.4,0.1,0.7,0.2,1.1,0.3c0.1,0.1,0.2,0.1,0.3,0.2l0.1,0.1c0.1,0.1,0.3,0.2,0.4,0.4c0,0,0,0,0,0.1c0.1,0.1,0.1,0.1,0.2,0.1
		c0.1,0,0.3,0,0.4-0.1c0.1-0.1,0.2-0.2,0.2-0.3s0-0.3-0.1-0.4c-0.1-0.2-0.3-0.3-0.4-0.4c-0.2-0.2-0.5-0.4-0.7-0.5
		c-0.3-0.1-0.6-0.2-0.9-0.3c-0.4-0.1-0.8-0.2-1.2-0.2C36.2,16.2,36.1,16.2,36,16.2L36,16.2L36,16.2z M32.9,17.2L32.9,17.2L32.9,17.2
		L32.9,17.2L32.9,17.2z"/>
	<path d="M35.9,9.8c-0.2,0-0.4,0.1-0.6,0.1c-0.2,0-0.3,0.1-0.5,0.1c-0.1,0-0.2,0.1-0.3,0.1s-0.2,0.1-0.2,0.1
		c-0.2,0.1-0.3,0.1-0.5,0.2h-0.1h-0.1c-0.1,0-0.2,0-0.4,0s-0.3,0.1-0.5,0.1s-0.3,0.1-0.5,0.1c-0.1,0-0.2,0.1-0.3,0.1
		c-0.1,0-0.2,0-0.3,0.1c-0.1,0-0.3,0.1-0.4,0.1c-0.2,0-0.3,0-0.5,0c-0.3,0-0.7,0.1-1,0.1c-0.4,0.1-0.8,0.2-1.2,0.4
		c-0.2,0.1-0.3,0.1-0.5,0.1s-0.3,0.1-0.5,0.1s-0.3,0.1-0.5,0.1s-0.3,0.1-0.5,0.1s-0.4,0.1-0.6,0.1c-0.1,0-0.2,0-0.3,0
		c-0.1,0-0.2,0-0.3,0c-0.2,0-0.3-0.1-0.5-0.1c-0.1-0.1-0.3-0.1-0.4-0.2c-0.1,0-0.2-0.1-0.3-0.1c-0.2-0.1-0.5,0-0.7,0
		c-0.3,0.1-0.6,0.3-0.9,0.5c-0.1,0.1-0.3,0.2-0.4,0.3c-0.3,0.2-0.5,0.4-0.8,0.5c-0.1,0.1-0.2,0.2-0.4,0.2c-0.1,0.1-0.3,0.1-0.4,0.2
		c-0.1,0.1-0.2,0.1-0.4,0.1c-0.1,0-0.2,0-0.2,0.1c-0.1,0-0.2,0-0.3,0.1c-0.1,0-0.3,0.1-0.4,0.2c-0.1,0.1-0.3,0.2-0.4,0.2
		c-0.2,0.1-0.3,0.2-0.4,0.3s-0.2,0.2-0.3,0.3c-0.1,0.1-0.2,0.3-0.3,0.5c-0.1,0.2-0.2,0.5-0.3,0.7c0,0.2-0.1,0.3-0.1,0.5
		c0,0.1,0,0.1-0.1,0.2v0.1c0,0-0.1,0-0.1,0.1c-0.1,0-0.2,0.1-0.3,0.1c-0.1,0-0.2,0.1-0.3,0.1c-0.1,0-0.2,0.1-0.3,0.1
		c-0.2,0.1-0.3,0.2-0.4,0.3c-0.4,0.3-0.4,0.9-0.5,1.3c0,0.2,0,0.4,0,0.6c-0.1,0-0.1,0-0.1,0c-0.2,0-0.3,0.2-0.4,0.3
		c-0.1,0.1-0.1,0.2-0.1,0.3s0,0.2,0.1,0.3c0.2,0.2,0.4,0.2,0.6,0c0,0,0,0,0.1-0.1l0,0c0.1,0,0.1,0,0.2,0c0.1,0,0.2-0.1,0.3-0.1
		c0.1-0.1,0.1-0.1,0.1-0.2c0-0.1,0-0.2,0-0.3s0-0.2,0-0.3c0-0.2,0-0.4,0.1-0.6c0-0.2,0.1-0.3,0.1-0.5v-0.1l0.1-0.1
		c0.2-0.1,0.4-0.2,0.6-0.3s0.4-0.1,0.5-0.2c0.1,0,0.1-0.1,0.2-0.1c0.1-0.1,0.1-0.1,0.2-0.2c0.2-0.1,0.3-0.2,0.3-0.2v-0.1
		c0-0.1,0.1-0.3,0.1-0.4c0-0.2,0.1-0.3,0.2-0.5c0.1-0.1,0.1-0.2,0.2-0.4c0.1-0.1,0.1-0.1,0.2-0.2c0.1-0.1,0.2-0.2,0.3-0.2
		c0.1-0.1,0.2-0.1,0.3-0.2c0.2-0.1,0.3-0.2,0.5-0.3s0.4-0.1,0.6-0.2c0.2-0.1,0.3-0.1,0.5-0.2c0.1,0,0.1-0.1,0.2-0.1s0.1-0.1,0.2-0.1
		c0.1-0.1,0.3-0.1,0.4-0.2c0.3-0.2,0.6-0.4,0.8-0.5c0.1-0.1,0.2-0.2,0.4-0.2c0.2-0.2,0.5-0.3,0.7-0.4c0.1,0,0.2-0.1,0.3-0.1
		c0,0,0,0,0.1,0l0,0c0.1,0.1,0.3,0.1,0.4,0.2c0.2,0.1,0.3,0.2,0.5,0.2c0.1,0,0.2,0.1,0.3,0.1c0.2,0,0.3,0,0.5,0c0.1,0,0.3,0,0.4,0
		s0.2,0,0.2,0c0.2,0,0.4-0.1,0.6-0.1s0.4-0.1,0.5-0.1c0.2,0,0.3-0.1,0.5-0.1s0.3-0.1,0.5-0.1s0.3-0.1,0.5-0.2
		c0.4-0.1,0.9-0.3,1.4-0.4c0.2,0,0.4,0,0.7-0.1c0.1,0,0.3,0,0.4,0s0.2,0,0.3,0s0.2,0,0.3-0.1c0.1,0,0.2-0.1,0.4-0.1
		c0.2-0.1,0.5-0.1,0.7-0.2c0.1,0,0.2,0,0.3,0h0.1c0.1,0,0.2,0,0.2,0c0.1,0,0.2,0,0.3,0s0.2-0.1,0.3-0.1c0.2-0.1,0.4-0.2,0.6-0.3
		c0.3-0.1,0.6-0.2,1-0.3c0.1,0,0.1,0,0.2,0c0,0,0,0,0.1,0s0.1,0.1,0.2,0.1c0.1,0,0.1,0.1,0.2,0.1c0.1,0,0.1,0.1,0.2,0.1
		c0.1,0,0.1,0.1,0.2,0.1c0.1,0,0.2,0.1,0.3,0.1s0.1,0,0.2,0c0.1,0,0.1,0,0.2,0c0.1,0,0.3-0.1,0.4-0.1c0.1-0.1,0.3-0.1,0.4-0.1
		c0.2,0,0.3-0.1,0.5-0.1l0.1,0.1c0.1,0.1,0.2,0.1,0.3,0.1s0.2,0.1,0.3,0.1c0.2,0.1,0.3,0.1,0.5,0.1c0.3,0.1,0.6,0.2,1,0.3
		s0.9,0.2,1.3,0.2h0.1c0.1,0,0.1,0,0.2,0c0.1,0,0.1-0.1,0.1-0.2c0-0.1,0-0.2,0-0.3s-0.1-0.1-0.2-0.1c-0.4-0.1-0.7-0.1-1.1-0.2
		c-0.2,0-0.3-0.1-0.5-0.1c-0.2-0.1-0.4-0.1-0.6-0.2c-0.2-0.1-0.4-0.2-0.7-0.3c-0.1,0-0.1-0.1-0.2-0.1c0-0.1-0.1-0.1-0.1-0.2L39.7,10
		c-0.1,0-0.2-0.1-0.2-0.1c-0.2,0-0.3,0-0.5,0.1c-0.1,0-0.3,0.1-0.4,0.1c-0.2,0.1-0.5,0.1-0.7,0.2h-0.1h-0.1c0,0,0,0-0.1,0
		c-0.1-0.1-0.2-0.2-0.3-0.3s-0.2-0.1-0.2-0.2c-0.1-0.1-0.2-0.1-0.3-0.1s-0.2,0-0.3,0h-0.1C36,9.8,36,9.8,35.9,9.8L35.9,9.8L35.9,9.8
		z M39.1,10.9L39.1,10.9L39.1,10.9L39.1,10.9L39.1,10.9z M24,12.2C24.1,12.2,24.1,12.2,24,12.2C24.1,12.2,24.1,12.2,24,12.2L24,12.2
		L24,12.2z M15.6,19.4L15.6,19.4C15.6,19.4,15.5,19.4,15.6,19.4C15.5,19.4,15.6,19.4,15.6,19.4L15.6,19.4L15.6,19.4z M15.7,20.1
		C15.7,20.1,15.6,20.1,15.7,20.1C15.6,20.1,15.7,20.1,15.7,20.1L15.7,20.1L15.7,20.1z"/>
	<path d="M12.4,26.1c0,0,0,0.1-0.1,0.1v0.1c-0.1,0.1-0.1,0.2-0.2,0.3c-0.1,0.2-0.3,0.4-0.4,0.6c-0.1,0.2-0.3,0.5-0.3,0.8
		c0,0.2,0,0.5,0.2,0.6c0.1,0.1,0.2,0.2,0.2,0.3l0.1,0.1c0,0.1,0,0.1,0.1,0.2v0.1c0,0.2-0.1,0.5-0.2,0.7c-0.1,0.1-0.1,0.3-0.2,0.4
		c-0.2,0.3-0.3,0.5-0.3,0.7c0,0,0,0.1-0.1,0.1l0,0l0,0c-0.2,0.1-0.4,0.1-0.6,0.2c-0.3,0-0.7,0-1,0c-0.1,0-0.1,0-0.2,0
		c-0.1,0-0.2,0-0.3,0s-0.2,0-0.3,0H8.7c-0.1,0-0.3,0-0.4,0.1c0,0.1-0.1,0.2-0.2,0.2C8,31.8,7.9,31.9,7.9,32
		c-0.1,0.1-0.2,0.2-0.2,0.3c-0.1,0.1-0.2,0.3-0.3,0.4c-0.1,0.1-0.2,0.3-0.2,0.4c0,0.1-0.1,0.1-0.1,0.2c-0.1,0.2-0.2,0.3-0.2,0.5
		c-0.1,0.3-0.1,0.6-0.1,0.9c0,0.3,0,0.6,0.1,0.9c0,0.2,0.1,0.3,0.1,0.5c0,0.1,0.1,0.2,0.1,0.3s0.1,0.2,0.1,0.3
		c0.1,0.1,0.1,0.2,0.2,0.3s0.2,0.2,0.4,0.3c0.1,0.1,0.3,0.2,0.4,0.3c-0.1,0.1,0,0.1,0.1,0.2C8.5,37.9,8.7,38,9,38.1
		c0.2,0.1,0.4,0.2,0.6,0.2c0.3,0.1,0.6,0.1,0.8,0.1c0.3,0,0.6,0,0.9,0.1c0.4,0,0.8,0,1.2,0s0.7-0.1,1.1-0.2c0.1,0,0.3-0.1,0.4-0.1
		c0.1,0,0.2,0,0.2,0c0.2,0,0.4,0,0.6,0c0.2,0,0.4,0,0.6,0c0.2,0,0.4,0,0.6,0c0.1,0,0.1,0,0.2,0c0.1,0.1,0.1,0.1,0.2,0.2
		c0.2,0.1,0.4,0.1,0.7,0.1c0.4-0.1,0.7-0.6,0.6-1c0-0.1-0.1-0.2-0.1-0.3s-0.1-0.2-0.1-0.3s-0.2-0.2-0.2-0.2l0,0
		c-0.1-0.1-0.2-0.2-0.4-0.2c-0.1,0-0.2,0-0.3-0.1c-0.1,0-0.3,0-0.4,0c-0.3,0-0.7,0.1-1,0.1c0.1,0,0.1,0,0.2,0
		c-0.3,0-0.6,0.1-0.9,0.1c-0.1,0-0.2,0.1-0.4,0.1c-0.1,0-0.2,0.1-0.4,0.1c-0.2,0.1-0.4,0.1-0.6,0.2c-0.4,0.1-0.8,0.2-1.2,0.3
		c-0.3,0-0.6,0-0.8,0.1c-0.4,0-0.9,0.1-1.3,0c-0.3,0-0.5-0.1-0.7-0.2c-0.3-0.2-0.6-0.4-0.8-0.5S8,36.5,7.8,36.4
		c-0.1,0-0.1-0.1-0.2-0.2c-0.1-0.2-0.2-0.4-0.3-0.5c0-0.1,0-0.3-0.1-0.5c0-0.3,0-0.5,0-0.8c0-0.2,0.1-0.3,0.1-0.5
		c0.1-0.2,0.2-0.3,0.3-0.4c0.1-0.1,0.2-0.2,0.2-0.4C7.9,33,8,32.9,8,32.8c0.1-0.1,0.2-0.3,0.3-0.4c0.1-0.1,0.2-0.2,0.3-0.3
		c0,0,0.1,0,0.1-0.1c0.1,0,0.2,0,0.3-0.1c0.3,0,0.6-0.1,0.9-0.1c0.2,0,0.3,0,0.5-0.1c0.1,0,0.2,0,0.4-0.1c0.1,0,0.3-0.1,0.4-0.1
		c0.1,0,0.2-0.1,0.2-0.1c0.1-0.1,0.1-0.1,0.1-0.2c0-0.1,0.1-0.1,0.1-0.2c0.1-0.1,0.2-0.3,0.2-0.4c0.1-0.1,0.2-0.3,0.2-0.5
		c0.1-0.2,0.1-0.3,0.1-0.5c0-0.1,0-0.3,0.1-0.4c0-0.1,0-0.3-0.1-0.4c-0.1-0.1-0.1-0.2-0.2-0.4l-0.1-0.1c0-0.1-0.1-0.1-0.1-0.2V28
		v-0.1c0-0.1,0.1-0.3,0.1-0.4c0.1-0.2,0.3-0.5,0.4-0.7c0.1-0.1,0.1-0.2,0.2-0.3c0.1,0,0.2,0,0.2-0.1s0.1-0.3,0.1-0.4
		c0-0.1,0-0.2-0.1-0.2c0,0,0,0-0.1,0C12.5,25.9,12.5,26,12.4,26.1L12.4,26.1L12.4,26.1z M12,28.5L12,28.5L12,28.5L12,28.5L12,28.5z
		 M11.2,31.2L11.2,31.2L11.2,31.2L11.2,31.2L11.2,31.2z M11.2,31.2C11.1,31.2,11.1,31.2,11.2,31.2C11.1,31.2,11.1,31.2,11.2,31.2
		L11.2,31.2L11.2,31.2z"/>
	<path d="M47.4,13.1c-0.1,0-0.2,0-0.3,0.1c-0.1,0-0.2,0.1-0.2,0.1c-0.1,0-0.1,0.1-0.1,0.2c0,0.1,0,0.1,0,0.2c0,0.1,0.1,0.1,0.2,0.1
		c0.1,0,0.1,0,0.2,0c0.1,0,0.1-0.1,0.2-0.1h0.1c0.1,0,0.2,0,0.4,0s0.4,0.1,0.6,0.2c0.3,0.1,0.6,0.3,0.9,0.4c0.2,0.1,0.3,0.2,0.5,0.2
		c0.2,0.1,0.3,0.2,0.5,0.2c0.3,0.1,0.6,0.3,0.9,0.5c0.3,0.2,0.5,0.4,0.7,0.7c0.1,0.1,0.2,0.3,0.4,0.4c0.1,0.1,0.1,0.1,0.2,0.2
		c0.1,0.1,0.1,0.1,0.2,0.2c0.1,0.1,0.2,0.1,0.3,0.1c0.3,0.1,0.6,0,0.9,0c0.3,0,0.7,0,1,0c0.1,0,0.3,0,0.4,0c0.2,0,0.3,0,0.5,0
		c0,0,0,0,0.1,0s0.1,0.1,0.2,0.1c0.3,0.2,0.5,0.5,0.7,0.8c0.1,0.1,0.2,0.2,0.3,0.4c0.1,0.1,0.2,0.2,0.3,0.2c0.1,0.1,0.3,0.2,0.4,0.2
		c0.1,0.1,0.3,0.1,0.4,0.2c0.2,0.1,0.4,0.1,0.6,0.2c0.3,0.1,0.5,0.1,0.8,0.2c0.2,0.1,0.4,0.2,0.6,0.4c0.4,0.3,0.8,0.7,1.2,1
		c0.2,0.1,0.4,0.3,0.6,0.4c0.2,0.1,0.5,0.3,0.7,0.3c0.1,0,0.3,0.1,0.4,0.1c0.1,0,0.3,0.1,0.4,0.1c0.2,0.1,0.5,0.1,0.7,0.2
		c0.1,0,0.3,0.1,0.4,0.1s0.2,0,0.3,0.1c0.3,0,0.5,0.1,0.8,0.1c0.4,0.1,0.8,0.1,1.1,0.3c0.2,0.1,0.4,0.2,0.6,0.3
		c0.1,0.1,0.2,0.1,0.3,0.2l0,0c0.1,0.1,0.2,0.3,0.2,0.4c0,0.1,0.1,0.2,0.1,0.3c0.1,0.1,0.1,0.2,0.2,0.3s0.1,0.2,0.2,0.3
		s0.1,0.1,0.2,0.2c0.1,0.1,0.2,0.1,0.3,0.1c0.1,0,0.2,0,0.3,0.1c0.1,0,0.2,0,0.2,0.1l0,0c0,0,0,0,0.1,0.1c0,0.1,0.1,0.1,0.1,0.2
		c0,0,0,0.1,0.1,0.1c0.1,0.1,0.1,0.2,0.2,0.3c0.2,0.2,0.3,0.4,0.5,0.6c0.1,0.1,0.2,0.2,0.3,0.3c0.1,0.1,0.2,0.1,0.2,0.2
		c0.1,0,0.1,0.1,0.2,0.1s0.2,0.1,0.3,0.1c0.2,0.1,0.4,0.1,0.6,0.2c0.1,0.1,0.3,0.1,0.4,0.2c0.1,0.1,0.1,0.1,0.2,0.2c0,0,0,0,0.1,0.1
		s0.1,0.1,0.2,0.1c0.1,0.1,0.3,0.1,0.4,0.2c0.1,0,0.2,0,0.3,0c0.1,0,0.2,0,0.3,0c0.2,0,0.3,0,0.5-0.1c0.5-0.1,0.9-0.1,1.4-0.1
		c0.5-0.1,0.9-0.1,1.4-0.1c0.2,0,0.5,0,0.7,0s0.5,0.1,0.7,0.1s0.4,0,0.7,0c0.2,0,0.5,0,0.7,0.1c0.1,0,0.2,0,0.4,0.1
		c0.2,0,0.4,0.1,0.6,0.1s0.3,0,0.5,0.1c0.2,0,0.5,0,0.7,0.1c0.6,0.1,1.1,0.3,1.7,0.5c0.2,0.1,0.5,0.1,0.7,0.2c0.2,0,0.4,0.1,0.7,0.1
		c0.5,0.1,0.9,0.2,1.4,0.4c0.4,0.1,0.9,0.3,1.3,0.4c0.2,0.1,0.3,0.1,0.5,0.1c0.1,0,0.2,0.1,0.3,0.1H89c0.2,0.1,0.5,0.3,0.7,0.4
		c0.2,0.1,0.4,0.3,0.6,0.4c0.2,0.2,0.5,0.4,0.7,0.6c0.1,0.1,0.2,0.2,0.4,0.3c0,0,0.1,0,0.1,0.1c-0.1,0-0.1,0.1-0.2,0.1
		c-0.3,0.1-0.5,0.2-0.8,0.3c-0.2,0.1-0.4,0.1-0.7,0.2c-0.2,0-0.5,0.1-0.7,0.1s-0.5,0-0.7,0.1c-0.2,0-0.5,0-0.7,0c-0.5,0-0.9,0-1.4,0
		s-1,0-1.4-0.1c-0.5,0-1.1,0-1.6-0.1c-0.8,0-1.6,0-2.3,0c-0.2,0-0.4,0-0.6,0c-1,0-1.9,0-2.9,0s-2,0.1-3.1,0.1c-0.5,0-0.9,0-1.4,0
		s-0.9,0-1.4,0.1c-0.5,0-0.9,0-1.4,0.1c-0.2,0-0.4,0-0.7,0c-0.2,0-0.3,0-0.5,0s-0.5-0.1-0.7-0.2c-0.1,0-0.3-0.1-0.4-0.1
		c-0.2,0-0.4-0.1-0.6-0.1c-0.1,0-0.3,0-0.4,0s-0.2,0-0.4,0c-0.1,0-0.2,0-0.3,0C66.1,31.9,66,32,66,32c-0.1,0.1-0.1,0.1-0.2,0.2
		c-0.1,0.1-0.2,0.2-0.2,0.4c0,0.1,0,0.2,0,0.2c0,0.2,0,0.3,0.1,0.4c0,0.1,0.1,0.1,0.1,0.2c0.1,0.1,0.3,0.2,0.4,0.2s0.2,0,0.3,0
		c0.1,0,0.2,0,0.3,0h0.1c0.1,0,0.2,0,0.4,0c0.1,0,0.2,0,0.4,0c0.5,0.1,1,0.2,1.4,0.2c0.2,0,0.4,0,0.7,0c0.2,0,0.5,0,0.7-0.1
		c0.5,0,0.9-0.1,1.4-0.1s1-0.1,1.5-0.1c1-0.1,2-0.2,3-0.2c0.5,0,1,0,1.4-0.1c0.5,0,1.1,0,1.6,0c1,0,2,0,3,0c0.5,0,1,0,1.4,0
		c0.5,0,0.9,0,1.4,0.1c0.3,0,0.5,0,0.8,0s0.6,0,0.8,0c0.3,0,0.5,0,0.8,0c0.2,0,0.5,0,0.7,0s0.5,0,0.7-0.1c0.1,0,0.3,0,0.4,0
		s0.3,0,0.4-0.1c0.2,0,0.3-0.1,0.5-0.1s0.4-0.1,0.6-0.1c0.3-0.1,0.7-0.2,1-0.3c0.2-0.1,0.3-0.1,0.5-0.2c0.2-0.1,0.3-0.2,0.5-0.3
		c0.1-0.1,0.1-0.2,0.2-0.2c0,0,0,0,0-0.1s0.1-0.1,0.1-0.2c0-0.1,0-0.3,0-0.4c0-0.1-0.1-0.2-0.1-0.3s-0.1-0.2-0.2-0.3l-0.1-0.1
		l-0.1-0.1c-0.2-0.2-0.3-0.3-0.5-0.4c-0.2-0.2-0.4-0.3-0.6-0.5S91.2,29.2,91,29c-0.4-0.3-0.9-0.5-1.4-0.7c-0.2-0.1-0.4-0.1-0.6-0.2
		c-0.2-0.1-0.4-0.1-0.6-0.2c-0.9-0.3-1.8-0.5-2.7-0.7c-0.2,0-0.5-0.1-0.7-0.1c-0.1,0-0.2-0.1-0.4-0.1c-0.1,0-0.3-0.1-0.4-0.1
		c-0.2-0.1-0.5-0.1-0.7-0.2c-0.5-0.1-0.9-0.2-1.4-0.2c-0.3,0-0.5,0-0.8-0.1c-0.2,0-0.4-0.1-0.6-0.1c-0.3,0-0.6-0.1-0.8-0.1
		c-0.5,0-1,0-1.4-0.1c-0.2,0-0.5,0-0.7-0.1c-0.2,0-0.5,0-0.7,0c-0.5,0-1,0.1-1.5,0.2c-0.2,0-0.5,0.1-0.7,0.1s-0.4,0.1-0.6,0.1
		c-0.1,0-0.3,0-0.4,0c0,0,0,0-0.1,0c0,0,0,0-0.1,0c-0.1-0.1-0.2-0.2-0.3-0.2c-0.2-0.1-0.3-0.2-0.5-0.3c-0.1-0.1-0.3-0.1-0.4-0.2
		c-0.2-0.1-0.3-0.1-0.5-0.2c0,0-0.1,0-0.1-0.1c-0.2-0.1-0.3-0.3-0.4-0.5s-0.3-0.3-0.4-0.5s-0.2-0.4-0.4-0.6
		c-0.1-0.1-0.2-0.2-0.3-0.2c-0.1-0.1-0.2-0.1-0.4-0.1c-0.1,0-0.2,0-0.4-0.1l0,0l-0.1-0.1c-0.1-0.1-0.2-0.3-0.2-0.4
		c-0.1-0.2-0.2-0.4-0.3-0.7c-0.1-0.2-0.3-0.3-0.4-0.5c-0.1-0.1-0.2-0.1-0.2-0.2c-0.1-0.1-0.2-0.1-0.3-0.2c-0.7-0.5-1.5-0.6-2.3-0.7
		c-0.2,0-0.5-0.1-0.7-0.2c-0.1,0-0.2,0-0.3-0.1c-0.1,0-0.2-0.1-0.3-0.1c-0.2-0.1-0.4-0.1-0.7-0.2c-0.1,0-0.2-0.1-0.3-0.1
		s-0.2-0.1-0.3-0.1c-0.2-0.1-0.3-0.1-0.4-0.2c-0.1-0.1-0.3-0.2-0.4-0.3c-0.3-0.2-0.6-0.4-0.8-0.6c-0.3-0.2-0.5-0.4-0.8-0.5
		S60.3,18,60,17.9c-0.2,0-0.3-0.1-0.5-0.1s-0.3-0.1-0.5-0.1c-0.1,0-0.1-0.1-0.2-0.1c-0.2-0.1-0.4-0.2-0.6-0.3
		c-0.1-0.1-0.3-0.3-0.4-0.4c-0.1-0.1-0.2-0.3-0.4-0.4c-0.2-0.3-0.5-0.5-0.9-0.6c-0.1,0-0.2,0-0.3,0s-0.2,0-0.3,0c-0.3,0-0.6,0-0.9,0
		c-0.2,0-0.3,0-0.5,0c-0.3,0-0.6,0-0.8,0c-0.1,0-0.1,0-0.2,0c0,0,0,0-0.1,0c-0.2-0.1-0.3-0.3-0.4-0.4c-0.1-0.1-0.2-0.2-0.3-0.3
		c-0.2-0.3-0.5-0.5-0.7-0.7c-0.3-0.2-0.7-0.4-1-0.6c-0.2-0.1-0.3-0.2-0.5-0.2c-0.3-0.1-0.5-0.3-0.8-0.4c-0.2-0.1-0.3-0.2-0.5-0.2
		c-0.2-0.1-0.4-0.2-0.6-0.2c-0.1,0-0.2,0-0.3,0C47.6,13.1,47.5,13.1,47.4,13.1L47.4,13.1L47.4,13.1z M69.1,23.6
		C69.2,23.6,69.2,23.7,69.1,23.6C69.2,23.7,69.2,23.6,69.1,23.6L69.1,23.6L69.1,23.6z M69.5,24.6L69.5,24.6L69.5,24.6L69.5,24.6
		L69.5,24.6z"/>
	<path d="M61.8,27.1c-0.4,0-0.7,0.1-1.1,0.2c-0.2,0-0.3,0.3-0.3,0.4c0,0.1,0.1,0.2,0.2,0.2c0.1,0.1,0.2,0.1,0.3,0
		c0.3-0.1,0.6-0.1,1-0.2c0.1,0,0.3,0,0.4,0h0.1l0,0l0,0c0,0.1,0,0.2,0,0.3s0,0.2-0.1,0.2c-0.1,0.2-0.2,0.3-0.2,0.5
		c0,0.1,0,0.2,0.1,0.3l0.1,0.1l0.1,0.1l0,0c0,0,0.1,0,0.2,0.1c0.1,0,0.1,0,0.2,0c0.2,0,0.3,0.1,0.5,0.1l0,0l0,0l0.1,0.1
		c0.1,0.2,0.2,0.4,0.2,0.6c0.1,0.2,0.2,0.3,0.2,0.5c0.1,0.2,0.1,0.3,0.2,0.5c0,0.1,0.1,0.2,0.1,0.3s0.1,0.2,0.2,0.2l0,0l0.1,0.1
		c0.1,0.1,0.2,0.1,0.3,0.2c0.2,0,0.3,0,0.5-0.1c0.1-0.1,0.2-0.2,0.3-0.4c0-0.1,0-0.1,0-0.2c0-0.1,0-0.2-0.1-0.3
		c-0.1-0.2-0.2-0.4-0.4-0.7c-0.1-0.2-0.3-0.5-0.4-0.7c-0.1-0.1-0.1-0.2-0.2-0.3c-0.1-0.2-0.2-0.3-0.3-0.4c-0.1-0.1-0.2-0.2-0.4-0.3
		c-0.1,0-0.2-0.1-0.3-0.1s-0.1,0-0.2,0c-0.1,0-0.2,0-0.3,0c0-0.1,0-0.3,0-0.4c0-0.2,0-0.3,0-0.5c0-0.1-0.1-0.2-0.1-0.3
		c-0.1-0.1-0.1-0.2-0.2-0.2c-0.1,0-0.1-0.1-0.2-0.1c-0.1,0-0.2,0-0.3,0s-0.1,0-0.2,0C62,27.1,61.9,27.1,61.8,27.1L61.8,27.1
		L61.8,27.1z M62.4,27.9L62.4,27.9L62.4,27.9L62.4,27.9L62.4,27.9L62.4,27.9z M62.4,27.9L62.4,27.9L62.4,27.9L62.4,27.9L62.4,27.9
		L62.4,27.9z M62.4,27.9L62.4,27.9L62.4,27.9L62.4,27.9L62.4,27.9L62.4,27.9z M62.4,27.9L62.4,27.9L62.4,27.9L62.4,27.9L62.4,27.9
		L62.4,27.9z M62.4,28L62.4,28L62.4,28L62.4,28L62.4,28z"/>
</g>
</svg>
